<?xml version="1.0" standalone="no"?>
<!DOCTYPE svg PUBLIC "-//W3C//DTD SVG 20010904//EN"
 "http://www.w3.org/TR/2001/REC-SVG-20010904/DTD/svg10.dtd">
<svg version="1.0" xmlns="http://www.w3.org/2000/svg"
 width="7016.000000pt" height="4961.000000pt" viewBox="0 0 7016.000000 4961.000000"
 preserveAspectRatio="xMidYMid meet">

<g transform="translate(0.000000,4961.000000) scale(0.100000,-0.100000)"
fill="#000000" stroke="none">
<path d="M22311 41229 c25 -30 290 -349 589 -709 299 -360 598 -720 665 -800
110 -132 212 -254 320 -384 22 -27 47 -57 57 -68 9 -10 31 -37 48 -58 17 -21
41 -49 52 -62 11 -13 43 -51 71 -85 28 -35 54 -63 59 -63 4 0 8 -6 8 -14 0 -8
11 -23 25 -34 14 -11 25 -25 25 -30 0 -6 11 -19 25 -30 14 -11 25 -24 25 -29
0 -5 12 -22 28 -36 15 -15 37 -39 49 -54 61 -76 308 -373 342 -411 22 -24 42
-50 45 -58 3 -8 10 -14 16 -14 5 0 10 -5 10 -11 0 -7 11 -22 25 -35 14 -13 25
-25 25 -28 0 -13 35 -46 48 -46 8 0 12 -6 9 -13 -8 -20 49 -69 133 -114 41
-22 199 -107 350 -190 151 -83 471 -256 710 -385 239 -130 687 -371 995 -538
308 -166 612 -330 675 -365 163 -89 398 -215 1110 -600 344 -186 706 -381 805
-435 99 -54 596 -323 1105 -598 909 -491 2250 -1215 2850 -1540 168 -90 501
-270 740 -399 239 -130 487 -263 550 -298 63 -34 729 -394 1480 -800 2062
-1114 1907 -1027 1964 -1093 26 -32 312 -361 634 -732 703 -810 1324 -1524
1997 -2300 274 -316 517 -595 539 -620 23 -25 79 -90 126 -144 47 -55 90 -104
95 -110 6 -6 37 -42 70 -81 33 -38 62 -72 65 -75 3 -3 32 -36 65 -75 79 -91
97 -112 196 -225 46 -53 167 -191 268 -308 101 -116 188 -209 193 -206 4 3 7
2 6 -3 -2 -5 8 -20 21 -33 26 -27 26 -26 -6 40 -11 25 -85 187 -163 360 -78
173 -155 343 -171 378 -16 35 -29 65 -29 67 0 2 -17 41 -39 87 -21 45 -48 103
-59 128 -36 81 -212 471 -302 670 -49 107 -152 337 -230 510 -78 173 -152 338
-165 365 -12 28 -32 73 -45 100 -12 28 -56 124 -97 215 -42 91 -86 190 -100
220 -14 30 -31 69 -38 85 -8 17 -123 271 -255 565 -133 294 -255 564 -272 600
-17 36 -56 124 -88 195 -158 360 -524 1162 -535 1173 -12 13 -26 2 -238 -199
l-81 -77 31 -68 c107 -235 267 -586 285 -624 11 -25 116 -256 233 -515 117
-258 227 -499 243 -535 32 -70 217 -476 250 -550 21 -47 315 -695 359 -790 46
-100 47 -109 11 -65 -18 22 -49 58 -69 80 -28 32 -455 524 -1079 1245 -708
818 -1369 1576 -1406 1612 -37 35 -155 103 -489 283 -242 131 -1194 645 -2115
1143 -921 497 -1711 924 -1755 947 -44 24 -1054 569 -2245 1213 -1191 643
-2313 1249 -2495 1347 -181 98 -357 192 -390 210 -33 18 -145 79 -250 135
-104 56 -212 115 -240 130 -92 50 -339 184 -416 224 -42 23 -734 397 -1539
831 l-1463 790 -101 121 c-55 66 -116 139 -134 162 -35 42 -53 64 -100 118
-15 17 -42 49 -60 72 -19 22 -41 50 -50 61 -10 10 -96 115 -192 231 -96 117
-260 314 -363 439 -104 124 -203 243 -220 265 -62 75 -83 96 -148 148 -103 83
-365 297 -444 363 -40 33 -103 85 -141 116 -38 32 -128 106 -201 165 -72 60
-198 163 -278 229 -81 66 -177 145 -214 175 -110 93 -225 186 -241 195 -8 5 6
-16 31 -46z m19539 -14129 c6 -11 8 -20 6 -20 -3 0 -10 9 -16 20 -6 11 -8 20
-6 20 3 0 10 -9 16 -20z m278 -445 c-3 -3 -9 2 -12 12 -6 14 -5 15 5 6 7 -7
10 -15 7 -18z m432 -655 c0 -5 -4 -10 -10 -10 -5 0 -10 5 -10 10 0 6 5 10 10
10 6 0 10 -4 10 -10z m20 -40 c6 -11 8 -20 6 -20 -3 0 -10 9 -16 20 -6 11 -8
20 -6 20 3 0 10 -9 16 -20z"/>
<path d="M31311 29419 c757 -574 819 -622 806 -639 -9 -12 -9 -13 3 -3 16 15
54 -2 44 -19 -4 -7 -3 -8 5 -4 15 9 53 -3 46 -15 -3 -5 0 -6 8 -3 20 7 248
-86 240 -99 -3 -6 -1 -7 6 -3 16 10 53 -3 45 -16 -4 -7 -2 -8 5 -4 16 10 53
-3 45 -16 -4 -7 -2 -8 5 -4 16 10 53 -3 45 -16 -4 -7 -2 -8 5 -4 16 10 53 -3
45 -16 -4 -7 -2 -8 5 -4 16 10 53 -3 45 -16 -4 -7 -2 -8 5 -4 16 10 53 -3 45
-16 -4 -7 -2 -8 5 -4 16 10 53 -3 45 -16 -4 -7 -2 -8 5 -4 16 10 53 -3 45 -16
-4 -7 -2 -8 5 -4 16 10 53 -3 45 -16 -4 -7 -2 -8 5 -4 16 10 53 -3 45 -16 -4
-7 -2 -8 5 -4 16 10 53 -3 45 -16 -4 -7 -2 -8 5 -4 16 10 53 -3 45 -16 -5 -7
-2 -8 5 -3 10 6 10 10 -1 20 -7 7 -270 208 -584 448 l-570 436 -455 182 c-250
100 -461 184 -469 187 -8 3 136 -109 321 -249z"/>
<path d="M48680 29043 c-549 -32 -1173 -158 -1753 -355 l-99 -34 210 -154 210
-155 -35 -12 c-34 -12 -34 -12 -171 90 -261 195 -281 209 -295 200 -10 -6 43
-50 190 -158 l204 -150 -33 -13 c-28 -12 -30 -16 -17 -25 9 -7 91 -68 183
-137 l167 -125 -258 -17 c-302 -20 -671 -57 -949 -97 -190 -27 -212 -33 -469
-119 -616 -206 -1238 -456 -1960 -789 -146 -68 -229 -110 -192 -99 458 141
1201 327 1722 432 301 60 291 59 395 45 94 -12 282 -1 637 39 855 96 1370 128
1918 116 560 -11 987 -50 1465 -132 503 -86 1184 -262 1608 -415 91 -32 169
-56 175 -52 5 3 7 2 4 -3 -3 -6 18 -18 46 -28 110 -39 389 -161 527 -231 157
-80 325 -186 406 -258 48 -43 132 -153 123 -161 -2 -2 -78 -6 -169 -10 -769
-30 -1354 -119 -1909 -292 l-114 -35 212 -157 212 -157 -31 -13 c-36 -14 -8
-32 -294 180 -133 99 -196 136 -196 114 0 -3 92 -73 205 -156 113 -84 202
-156 199 -161 -3 -5 -14 -9 -25 -9 -10 0 -19 -4 -19 -9 0 -5 110 -91 245 -192
135 -100 244 -185 243 -189 -2 -4 -60 -45 -129 -92 -767 -516 -1232 -1057
-1669 -1943 -223 -454 -355 -782 -532 -1325 -126 -389 -254 -851 -344 -1239
-38 -165 -131 -596 -150 -696 -17 -92 -29 -119 -42 -99 -10 16 -82 103 -112
135 -14 15 -41 47 -60 70 -19 24 -51 61 -70 84 -64 73 -124 144 -200 235 -25
30 -57 68 -72 85 -43 48 -193 223 -278 325 -25 30 -91 108 -148 174 -57 67
-118 138 -135 159 -18 21 -46 55 -63 75 -87 102 -189 220 -213 247 -15 17 -47
55 -72 85 -55 68 -86 104 -122 144 -16 17 -36 41 -44 54 -11 16 -23 22 -37 18
-12 -3 -64 -10 -116 -16 -85 -9 -177 -22 -250 -34 -14 -3 -38 -5 -53 -5 -24
-1 -26 -3 -15 -15 7 -8 23 -27 35 -43 12 -15 38 -46 57 -68 20 -22 53 -59 74
-83 20 -24 52 -59 70 -78 17 -20 32 -40 32 -45 0 -5 7 -9 15 -9 8 0 15 -6 15
-14 0 -8 15 -27 33 -42 17 -16 33 -33 34 -37 5 -19 42 -57 57 -57 8 0 13 -6
11 -12 -3 -7 14 -33 36 -58 22 -25 50 -58 62 -73 12 -15 37 -44 55 -63 17 -20
32 -39 32 -44 0 -4 12 -16 27 -25 25 -17 26 -17 19 0 -5 14 -4 16 7 7 8 -7 16
-11 18 -9 2 1 -2 -3 -9 -9 -7 -6 -10 -19 -6 -28 7 -19 35 -21 52 -4 7 7 12 9
12 6 0 -4 -7 -14 -16 -23 -15 -15 -14 -18 12 -46 17 -18 34 -27 44 -24 12 5
12 4 3 -6 -10 -10 -5 -21 25 -53 38 -42 115 -133 142 -168 8 -10 30 -35 48
-54 17 -20 32 -40 32 -45 0 -13 34 -11 48 3 7 7 12 9 12 6 0 -4 -7 -14 -16
-22 -14 -14 -13 -18 3 -41 20 -27 42 -32 61 -13 7 7 12 9 12 6 0 -4 -7 -14
-16 -23 -15 -15 -14 -18 15 -47 26 -26 33 -28 47 -18 12 11 15 11 12 -1 -2 -8
-7 -17 -13 -21 -11 -9 14 -30 26 -22 4 2 11 -1 15 -7 5 -8 3 -9 -6 -4 -8 5
-11 3 -8 -6 3 -8 15 -13 27 -12 11 2 21 -2 21 -8 0 -5 -4 -7 -10 -4 -5 3 -10
-1 -10 -9 0 -9 5 -17 10 -17 6 -1 15 -3 20 -4 6 -1 15 -3 20 -4 6 0 10 -6 10
-12 0 -8 -5 -7 -15 1 -13 11 -14 10 -8 -6 10 -29 25 -34 40 -16 12 15 13 14 3
-7 -13 -26 1 -44 27 -34 7 3 13 0 13 -7 0 -6 -4 -8 -10 -5 -5 3 -10 0 -10 -7
0 -7 9 -19 20 -25 16 -11 18 -10 14 1 -3 8 -1 17 4 20 5 3 7 -10 5 -30 -2 -23
0 -33 7 -29 5 3 10 0 10 -7 0 -7 9 -19 20 -25 16 -11 18 -10 14 1 -3 8 -1 17
4 20 5 3 8 -8 6 -24 -4 -35 -6 -34 40 -15 20 8 38 15 41 15 3 0 14 9 25 20 11
11 28 20 38 19 12 0 10 -3 -8 -12 -14 -6 -31 -20 -38 -29 -7 -10 -21 -18 -30
-18 -9 0 -26 -7 -36 -15 -16 -12 -17 -17 -6 -30 7 -8 18 -15 24 -14 19 3 51
-15 54 -31 2 -10 -6 -6 -24 10 l-27 25 27 -37 c27 -36 46 -52 30 -25 -5 8 -2
8 9 -2 18 -15 23 -26 7 -16 -5 3 -10 2 -10 -4 0 -19 20 -22 45 -5 l26 17 -22
23 c-13 13 -17 24 -11 24 6 0 19 -11 28 -25 9 -14 21 -22 28 -18 6 4 5 -1 -3
-10 -7 -9 -16 -15 -20 -12 -4 2 -15 -5 -25 -17 -14 -16 -15 -22 -5 -29 7 -4
16 -6 20 -3 4 2 11 -1 15 -7 4 -8 3 -9 -4 -5 -7 4 -12 2 -12 -5 0 -7 11 -10
30 -7 29 4 29 4 16 -17 -13 -19 -12 -23 5 -33 16 -10 17 -9 12 6 -6 15 -5 15
10 3 11 -9 15 -21 11 -33 -5 -17 -3 -18 15 -8 17 8 21 8 19 -2 -2 -7 -7 -16
-13 -20 -6 -5 -5 -12 5 -17 8 -6 17 -7 20 -3 3 4 11 8 18 10 10 2 10 -2 2 -19
-15 -27 -7 -35 14 -14 9 9 16 13 17 8 0 -4 2 -16 4 -26 2 -12 -1 -17 -10 -13
-9 3 -12 0 -8 -10 7 -18 27 -18 43 1 7 8 18 15 24 15 17 0 59 -40 51 -48 -4
-4 -13 2 -21 12 -19 27 -42 28 -55 4 -14 -26 -6 -33 15 -13 9 9 16 13 17 8 0
-4 2 -16 4 -26 2 -12 -1 -17 -10 -13 -9 3 -12 0 -8 -10 3 -7 7 -14 9 -14 8 0
90 45 106 58 9 7 24 12 33 10 13 -2 6 -11 -25 -30 -23 -16 -47 -28 -54 -28
-14 0 -36 -20 -36 -33 0 -4 4 -5 10 -2 5 3 8 0 5 -7 -3 -7 5 -19 17 -27 21
-13 22 -13 9 2 -20 25 3 21 25 -4 13 -16 15 -23 7 -26 -9 -3 -6 -13 9 -33 l21
-29 39 21 c27 16 41 19 49 11 8 -8 3 -13 -18 -17 -39 -9 -57 -38 -32 -54 15
-9 17 -9 13 2 -3 8 0 17 6 21 6 3 10 3 9 -2 -3 -20 2 -25 16 -13 8 7 12 16 9
21 -3 5 -1 9 5 9 6 0 15 -9 21 -20 6 -11 15 -18 20 -15 5 3 11 1 15 -5 3 -5
-1 -10 -9 -10 -8 0 -17 4 -20 9 -8 13 -36 7 -47 -10 -14 -22 -11 -29 9 -22 14
6 15 4 5 -8 -10 -12 -8 -17 7 -27 16 -9 18 -9 14 2 -3 8 0 17 6 21 6 3 10 3 9
-2 -3 -20 2 -25 16 -13 8 7 12 16 9 21 -3 5 -1 9 5 9 6 0 15 -9 21 -20 6 -11
15 -18 20 -15 5 3 11 1 14 -4 4 -5 1 -13 -5 -17 -6 -3 -15 -1 -19 7 -13 20
-39 19 -51 -3 -14 -26 -6 -33 16 -12 16 16 16 16 13 -2 -2 -10 -7 -22 -13 -26
-6 -5 -5 -12 5 -17 10 -7 17 -6 22 2 4 7 8 8 8 3 0 -5 9 -1 21 10 20 18 21 18
31 0 7 -13 12 -15 18 -6 5 8 9 3 12 -14 6 -30 -7 -34 -22 -7 -12 23 -38 21
-52 -3 -13 -24 -4 -30 16 -11 9 9 16 13 17 8 0 -4 2 -16 4 -26 2 -12 -1 -17
-10 -13 -9 3 -12 0 -8 -10 7 -18 27 -18 43 1 14 17 30 20 30 4 0 -5 -4 -8 -9
-4 -6 3 -15 -4 -21 -15 -10 -19 -10 -21 8 -11 19 10 32 6 32 -11 0 -4 -3 -7
-7 -7 -19 3 -33 -2 -33 -11 0 -5 10 -9 22 -7 18 2 24 -6 35 -45 8 -27 17 -48
21 -48 4 0 18 62 31 138 29 173 101 552 108 572 3 8 5 23 4 34 -2 10 2 15 7
12 10 -6 41 113 122 469 319 1399 736 2500 1236 3262 296 452 616 790 1063
1123 554 411 1282 772 1786 885 230 51 304 59 570 59 282 0 365 -12 553 -80
53 -19 101 -36 107 -37 35 -7 202 -178 258 -264 143 -217 234 -496 267 -818 6
-60 15 -136 18 -168 l7 -59 37 65 c64 111 205 387 254 497 52 117 143 337 149
360 2 8 4 17 5 20 1 3 2 8 1 13 0 4 4 7 10 7 6 0 9 7 5 15 -3 8 -1 15 5 15 6
0 9 7 5 15 -3 8 -2 15 3 15 5 0 12 15 15 33 3 17 8 41 11 52 84 357 99 471 92
714 -6 203 -18 274 -72 438 -71 213 -174 373 -355 553 -339 337 -810 570
-1724 850 l-269 83 -156 102 c-609 397 -1197 689 -1794 891 -522 176 -1002
274 -1542 314 -126 9 -597 11 -735 3z m-1580 -8203 c-8 -5 -19 -10 -25 -10 -5
0 -3 5 5 10 8 5 20 10 25 10 6 0 3 -5 -5 -10z m-50 -34 c0 -2 -7 -7 -16 -10
-8 -3 -12 -2 -9 4 6 10 25 14 25 6z m100 -10 c0 -2 -7 -7 -16 -10 -8 -3 -12
-2 -9 4 6 10 25 14 25 6z m0 -118 c0 -12 -6 -9 -26 13 -19 22 -19 22 4 8 12
-8 22 -17 22 -21z m60 -70 c0 -6 -6 -5 -15 2 -8 7 -15 14 -15 16 0 2 7 1 15
-2 8 -4 15 -11 15 -16z m100 -40 c0 -6 -6 -5 -15 2 -8 7 -15 14 -15 16 0 2 7
1 15 -2 8 -4 15 -11 15 -16z m-40 -30 c0 -6 -6 -5 -15 2 -8 7 -15 14 -15 16 0
2 7 1 15 -2 8 -4 15 -11 15 -16z m65 2 c3 -5 1 -10 -4 -10 -6 0 -11 5 -11 10
0 6 2 10 4 10 3 0 8 -4 11 -10z m-40 -30 c3 -5 1 -10 -4 -10 -6 0 -11 5 -11
10 0 6 2 10 4 10 3 0 8 -4 11 -10z m75 -10 c0 -5 -2 -10 -4 -10 -3 0 -8 5 -11
10 -3 6 -1 10 4 10 6 0 11 -4 11 -10z m-40 -30 c0 -5 -2 -10 -4 -10 -3 0 -8 5
-11 10 -3 6 -1 10 4 10 6 0 11 -4 11 -10z m70 -5 c11 -13 10 -14 -4 -9 -9 3
-16 10 -16 15 0 13 6 11 20 -6z m100 1 c0 -2 -7 -7 -16 -10 -8 -3 -12 -2 -9 4
6 10 25 14 25 6z m-140 -31 c11 -13 10 -14 -4 -9 -9 3 -16 10 -16 15 0 13 6
11 20 -6z m90 -8 c-14 -6 -28 -16 -32 -22 -5 -6 -8 -6 -8 2 0 14 29 33 50 32
8 0 4 -6 -10 -12z m-50 -31 c0 -2 -7 -7 -16 -10 -8 -3 -12 -2 -9 4 6 10 25 14
25 6z m65 -6 c3 -6 -1 -7 -9 -4 -18 7 -21 14 -7 14 6 0 13 -4 16 -10z m105 6
c0 -2 -9 -6 -20 -9 -11 -3 -18 -1 -14 4 5 9 34 13 34 5z m-145 -36 c3 -6 -1
-7 -9 -4 -18 7 -21 14 -7 14 6 0 13 -4 16 -10z m85 -3 c-14 -6 -28 -16 -32
-22 -5 -6 -8 -6 -8 2 0 14 29 33 50 32 8 0 4 -6 -10 -12z m20 -27 c-8 -5 -19
-10 -25 -10 -5 0 -3 5 5 10 8 5 20 10 25 10 6 0 3 -5 -5 -10z m-70 -4 c0 -2
-7 -7 -16 -10 -8 -3 -12 -2 -9 4 6 10 25 14 25 6z m25 -26 c-3 -5 -12 -10 -18
-10 -7 0 -6 4 3 10 19 12 23 12 15 0z m85 -20 c-8 -5 -19 -10 -25 -10 -5 0 -3
5 5 10 8 5 20 10 25 10 6 0 3 -5 -5 -10z m-45 -30 c-3 -5 -12 -10 -18 -10 -7
0 -6 4 3 10 19 12 23 12 15 0z m75 -22 c0 -6 -6 -5 -15 2 -8 7 -15 14 -15 16
0 2 7 1 15 -2 8 -4 15 -11 15 -16z m-40 -30 c0 -6 -6 -5 -15 2 -8 7 -15 14
-15 16 0 2 7 1 15 -2 8 -4 15 -11 15 -16z m100 -40 c0 -6 -6 -5 -15 2 -8 7
-15 14 -15 16 0 2 7 1 15 -2 8 -4 15 -11 15 -16z m-40 -30 c0 -6 -6 -5 -15 2
-8 7 -15 14 -15 16 0 2 7 1 15 -2 8 -4 15 -11 15 -16z m65 2 c3 -5 1 -10 -4
-10 -6 0 -11 5 -11 10 0 6 2 10 4 10 3 0 8 -4 11 -10z m-40 -30 c3 -5 1 -10
-4 -10 -6 0 -11 5 -11 10 0 6 2 10 4 10 3 0 8 -4 11 -10z m75 -10 c0 -5 -2
-10 -4 -10 -3 0 -8 5 -11 10 -3 6 -1 10 4 10 6 0 11 -4 11 -10z m-22 -51 c13
-16 20 -29 15 -29 -5 0 -19 14 -31 30 -29 39 -14 38 16 -1z m52 16 c11 -13 10
-14 -4 -9 -9 3 -16 10 -16 15 0 13 6 11 20 -6z m60 -70 c11 -13 10 -14 -4 -9
-9 3 -16 10 -16 15 0 13 6 11 20 -6z m-50 -20 c13 -14 19 -25 13 -25 -6 0 -18
11 -27 25 -9 14 -15 25 -13 25 2 0 14 -11 27 -25z m160 21 c0 -2 -9 -6 -20 -9
-11 -3 -18 -1 -14 4 5 9 34 13 34 5z m-40 -81 c7 -8 8 -15 2 -15 -5 0 -15 7
-22 15 -7 8 -8 15 -2 15 5 0 15 -7 22 -15z m-40 -30 c7 -8 8 -15 2 -15 -5 0
-15 7 -22 15 -7 8 -8 15 -2 15 5 0 15 -7 22 -15z m75 -5 c-3 -5 -13 -10 -21
-10 -8 0 -12 5 -9 10 3 6 13 10 21 10 8 0 12 -4 9 -10z m142 4 c-3 -3 -12 -4
-19 -1 -8 3 -5 6 6 6 11 1 17 -2 13 -5z m-119 -21 c-5 -17 23 -52 37 -47 8 4
15 1 15 -7 0 -7 -3 -9 -7 -6 -3 4 -12 2 -20 -4 -10 -9 -13 -8 -13 3 0 8 -9 23
-20 33 -16 14 -17 20 -8 27 16 10 19 10 16 1z m-63 -13 c-3 -5 -13 -10 -21
-10 -8 0 -12 5 -9 10 3 6 13 10 21 10 8 0 12 -4 9 -10z m105 -4 c0 -3 -4 -8
-10 -11 -5 -3 -10 -1 -10 4 0 6 5 11 10 11 6 0 10 -2 10 -4z m25 -77 c11 -17
-1 -21 -15 -4 -8 9 -8 15 -2 15 6 0 14 -5 17 -11z m35 7 c0 -3 -4 -8 -10 -11
-5 -3 -10 -1 -10 4 0 6 5 11 10 11 6 0 10 -2 10 -4z m-75 -37 c11 -17 -1 -21
-15 -4 -8 9 -8 15 -2 15 6 0 14 -5 17 -11z m81 -1 c4 -7 4 -10 -1 -6 -4 4 -15
2 -24 -5 -14 -11 -14 -10 -2 6 16 20 18 21 27 5z m27 -26 c-13 -8 -1 -36 17
-38 5 -1 15 -2 20 -3 17 -2 11 -18 -7 -18 -23 0 -65 50 -50 59 7 4 17 8 22 8
6 0 5 -4 -2 -8z m87 -24 c0 -6 -6 -5 -15 2 -8 7 -15 14 -15 16 0 2 7 1 15 -2
8 -4 15 -11 15 -16z m-122 -38 c13 -16 19 -30 15 -29 -11 0 -56 59 -46 59 5 0
19 -13 31 -30z m719 8 c-3 -8 -6 -5 -6 6 -1 11 2 17 5 13 3 -3 4 -12 1 -19z
m-527 -50 c0 -12 -6 -9 -26 13 -19 22 -19 22 4 8 12 -8 22 -17 22 -21z m-96 7
c3 -8 9 -14 13 -14 12 3 43 -12 43 -21 0 -4 -9 -7 -19 -6 -19 1 -71 56 -53 56
6 0 12 -7 16 -15z m-26 -46 c13 -16 20 -29 15 -29 -5 0 -19 14 -31 30 -29 39
-14 38 16 -1z m182 -31 c0 -12 -6 -9 -26 13 -19 22 -19 22 4 8 12 -8 22 -17
22 -21z m69 -12 c0 -7 -2 -6 -6 2 -2 6 -8 10 -12 8 -4 -3 -8 1 -8 9 0 11 4 12
14 4 7 -6 13 -17 12 -23z m-149 8 c15 -3 40 -17 40 -23 0 -18 -41 -7 -55 16
-12 17 -13 23 -4 17 8 -5 16 -9 19 -10z m115 -24 c-3 -5 -13 -10 -21 -10 -8 0
-14 5 -14 10 0 6 9 10 21 10 11 0 17 -4 14 -10z m51 -31 c30 13 34 14 34 2 0
-5 -10 -11 -22 -13 -17 -2 -22 -9 -20 -23 2 -11 2 -18 0 -15 -1 3 -14 18 -28
35 -14 16 -17 23 -7 16 14 -11 23 -11 43 -2z m51 -14 c-4 -8 -2 -17 3 -20 6
-4 10 -11 10 -18 0 -6 -6 -2 -14 8 -12 17 -12 45 1 45 3 0 3 -7 0 -15z m-100
-21 c14 6 15 4 6 -5 -6 -6 -9 -19 -6 -28 3 -13 2 -12 -7 2 -6 9 -16 15 -21 11
-5 -3 -17 0 -25 7 -12 10 -12 14 -2 20 7 4 18 3 25 -3 7 -5 21 -7 30 -4z m-79
-30 c26 -7 25 -26 -1 -30 -9 -1 -15 2 -12 6 3 5 -3 13 -12 19 -20 12 -9 14 25
5z m59 -19 c0 -8 -4 -12 -9 -9 -5 3 -6 10 -3 15 9 13 12 11 12 -6z m123 1 c0
-3 -4 -8 -10 -11 -5 -3 -10 -1 -10 4 0 6 5 11 10 11 6 0 10 -2 10 -4z m-77
-13 c-18 -7 7 -43 29 -43 24 0 23 -16 -2 -23 -12 -3 -20 0 -20 7 0 7 -9 21
-20 31 -16 14 -17 20 -8 27 7 4 18 7 23 7 6 0 5 -3 -2 -6z m-73 -13 c-8 -5
-22 -10 -30 -10 -13 0 -13 1 0 10 8 5 22 10 30 10 13 0 13 -1 0 -10z m110 -4
c0 -3 -4 -8 -10 -11 -5 -3 -10 -1 -10 4 0 6 5 11 10 11 6 0 10 -2 10 -4z m50
-6 c0 -5 -2 -10 -4 -10 -3 0 -8 5 -11 10 -3 6 -1 10 4 10 6 0 11 -4 11 -10z
m-126 -25 c11 -8 18 -15 15 -16 -2 0 -12 -2 -22 -4 -9 -2 -15 1 -12 5 3 5 -3
13 -12 19 -14 8 -15 10 -3 10 8 0 24 -6 34 -14z m-47 -28 c3 -20 2 -21 -13 -5
-9 9 -13 21 -9 28 9 15 18 6 22 -23z m201 8 c-3 -3 -9 2 -12 12 -6 14 -5 15 5
6 7 -7 10 -15 7 -18z m-20 -30 c19 -22 20 -26 7 -31 -8 -4 -21 -1 -29 5 -7 6
-17 7 -21 3 -5 -4 -5 -2 -1 5 3 6 1 15 -5 19 -8 4 -7 9 2 15 20 13 23 12 47
-16z m35 -52 c-7 -2 -9 -11 -6 -19 3 -7 9 -11 14 -8 5 3 9 1 9 -5 0 -5 3 -18
6 -28 5 -16 4 -16 -11 2 -9 11 -21 19 -26 17 -6 -1 -8 2 -5 7 4 5 1 13 -4 16
-7 5 -5 12 7 20 10 7 20 11 23 8 3 -3 0 -8 -7 -10z"/>
<path d="M48420 19269 c7 -11 14 -19 16 -16 7 7 -7 37 -17 37 -6 0 -5 -9 1
-21z"/>
<path d="M32870 28907 c8 -7 103 -81 210 -162 107 -82 197 -151 200 -155 3 -4
88 -69 190 -145 381 -286 569 -433 562 -441 -4 -4 -1 -4 6 0 17 10 54 -3 46
-16 -4 -7 -2 -8 5 -4 16 10 53 -3 45 -16 -4 -7 -2 -8 5 -4 16 10 53 -3 45 -16
-4 -7 -2 -8 5 -4 16 10 53 -3 45 -16 -4 -7 -2 -8 5 -4 16 10 53 -3 45 -16 -4
-7 -2 -8 5 -4 16 10 53 -3 45 -16 -4 -7 -2 -8 5 -4 16 10 53 -3 45 -16 -4 -7
-2 -8 5 -4 16 10 53 -3 45 -16 -4 -7 -2 -8 5 -4 16 10 53 -3 45 -16 -4 -7 -2
-8 5 -4 16 10 53 -3 45 -16 -4 -7 -2 -8 5 -4 16 10 53 -3 45 -16 -4 -7 -2 -8
5 -4 16 10 53 -3 45 -16 -4 -7 -2 -8 5 -4 16 10 53 -3 45 -16 -4 -7 -2 -8 5
-4 16 10 53 -3 45 -16 -4 -7 -2 -8 5 -4 16 11 273 -93 264 -107 -3 -6 -1 -7 6
-3 16 10 53 -3 45 -16 -4 -7 -2 -8 5 -4 16 10 53 -3 45 -16 -4 -7 -2 -8 5 -4
16 10 53 -3 45 -16 -4 -7 -2 -8 5 -4 16 10 53 -3 45 -16 -4 -7 -2 -8 5 -4 16
10 53 -3 45 -16 -4 -7 -2 -8 5 -4 16 10 53 -3 45 -16 -4 -7 -2 -8 5 -4 16 10
53 -3 45 -16 -4 -7 -2 -8 5 -4 16 10 53 -3 45 -16 -4 -7 -2 -8 5 -4 16 10 53
-3 45 -16 -4 -7 -2 -8 5 -4 16 10 53 -3 45 -16 -4 -7 -2 -8 5 -4 16 10 53 -3
45 -16 -4 -7 -2 -8 5 -4 16 10 53 -3 45 -16 -4 -7 -2 -8 5 -4 16 10 53 -3 45
-16 -4 -7 -2 -8 5 -4 16 10 53 -3 45 -16 -4 -7 -2 -8 5 -4 15 9 53 -3 46 -15
-3 -5 2 -6 11 -2 11 4 15 3 11 -4 -5 -7 1 -9 15 -5 14 3 19 1 14 -6 -5 -8 -1
-10 10 -5 11 4 15 3 11 -4 -5 -7 1 -9 15 -5 16 4 19 2 13 -8 -6 -9 -4 -11 4
-6 12 8 275 -93 267 -101 -2 -2 -21 3 -41 12 -79 33 -38 8 76 -47 87 -41 116
-52 109 -38 -6 10 -19 22 -31 25 -11 4 -18 9 -16 12 3 3 27 -8 53 -23 26 -16
44 -22 40 -16 -6 10 -1 11 17 7 14 -4 28 -2 31 4 4 6 -1 11 -11 11 -15 0 -16
2 -3 10 21 14 30 12 30 -5 0 -8 5 -14 12 -12 7 1 12 -2 13 -8 1 -18 16 -35 26
-29 5 3 8 1 7 -4 -2 -5 6 -18 18 -28 11 -11 24 -28 27 -38 4 -10 10 -16 14
-13 3 4 12 2 20 -4 10 -9 13 -7 13 8 0 10 7 28 16 39 8 10 13 14 10 7 -4 -6 2
-16 11 -22 10 -5 16 -11 13 -13 -85 -63 -81 -62 -87 -39 -3 12 -12 21 -20 21
-8 0 -11 5 -8 10 3 6 -1 10 -10 10 -9 0 -13 5 -10 10 3 6 -1 10 -9 10 -8 0
-18 -5 -21 -11 -4 -6 -13 -8 -21 -5 -8 3 -11 0 -8 -9 3 -7 12 -16 20 -19 10
-4 12 -2 8 6 -5 8 -2 9 10 5 10 -4 20 -7 23 -7 4 0 -2 -9 -12 -20 -18 -19 -17
-20 3 -20 12 0 22 5 22 10 0 6 5 10 10 10 16 0 11 -28 -6 -38 -25 -14 1 -25
28 -12 22 11 22 10 4 -4 -29 -23 -11 -32 21 -11 16 11 23 20 15 23 -19 6 -14
22 8 22 11 0 19 -4 17 -9 -1 -5 6 -16 17 -24 13 -10 16 -20 11 -36 -6 -21 -7
-21 -20 -4 -7 10 -11 21 -9 25 8 13 -24 2 -40 -15 -14 -14 -15 -17 -3 -17 9 0
17 6 20 13 2 6 8 8 13 4 4 -4 3 -17 -4 -27 -11 -18 -10 -20 20 -16 22 2 33 9
33 20 0 9 5 15 10 13 6 -1 9 -5 8 -9 -2 -5 5 -8 14 -8 9 0 14 -3 10 -6 -11
-11 43 -56 60 -50 14 6 12 11 -12 36 -16 17 -35 30 -42 30 -9 0 -12 10 -8 33
4 25 3 28 -5 15 -14 -23 -30 -23 -30 0 0 21 29 64 30 44 0 -17 25 -42 41 -42
8 0 5 -7 -7 -16 -18 -15 -18 -15 0 -10 14 5 17 2 12 -10 -5 -12 -2 -15 10 -10
12 5 15 2 10 -10 -5 -12 -2 -15 10 -10 11 4 15 2 11 -8 -5 -12 -1 -13 16 -7
15 6 21 16 19 32 -1 18 0 20 7 10 11 -17 41 -7 41 14 0 10 10 15 30 15 21 0
28 4 24 14 -3 7 3 16 12 20 22 9 30 0 15 -18 -15 -17 0 -29 26 -20 13 4 15 3
4 -4 -11 -8 -11 -10 0 -15 11 -4 10 -6 -1 -6 -9 -1 -21 4 -27 10 -12 12 -56 2
-48 -11 3 -5 -5 -10 -17 -12 -27 -4 -37 -28 -11 -28 15 0 16 -2 3 -10 -22 -14
-30 -12 -30 6 0 14 -3 14 -15 4 -20 -17 -19 -30 2 -30 15 0 15 -1 -1 -13 -17
-13 -17 -14 0 -28 10 -7 15 -9 11 -3 -4 7 3 12 19 12 24 0 24 -1 7 -21 -18
-19 -17 -19 7 -12 23 7 24 7 10 -10 -14 -17 -13 -17 10 -10 14 4 29 14 33 21
4 8 15 14 22 14 8 0 15 9 15 20 0 15 7 20 26 20 14 0 40 11 58 25 18 14 36 22
39 18 4 -3 7 1 7 11 0 14 -3 15 -21 5 -13 -6 -19 -7 -15 -1 3 6 0 13 -6 15 -7
3 -4 6 6 6 17 1 15 5 -12 27 -18 15 -32 33 -32 40 0 16 -26 19 -35 4 -3 -6 5
-14 19 -20 28 -10 34 -20 13 -20 -15 0 -57 36 -57 50 0 5 8 11 18 13 13 4 12
5 -5 6 -15 1 -21 6 -17 16 6 16 -17 45 -36 45 -7 0 -10 7 -6 15 6 17 -15 20
-30 5 -7 -7 -11 -6 -11 5 0 8 4 15 9 15 5 0 6 5 2 11 -5 8 -10 6 -16 -5 -5 -9
-13 -14 -18 -11 -6 4 -4 15 3 27 9 16 9 22 0 25 -7 3 -13 12 -13 20 0 9 -6 13
-15 9 -27 -10 -45 4 -39 31 6 24 5 24 -16 13 -12 -7 -20 -7 -16 -2 3 6 0 13
-6 15 -8 3 -6 6 5 6 13 1 9 9 -19 37 -26 25 -40 32 -47 25 -6 -6 -19 -11 -30
-11 -10 0 -15 -5 -12 -10 4 -6 -7 -15 -24 -21 -17 -6 -28 -15 -25 -20 3 -5 -3
-9 -12 -9 -19 0 -94 -48 -94 -60 0 -4 12 -5 28 -3 25 4 26 3 9 -10 -23 -19
-52 -11 -54 14 -1 12 6 21 22 25 13 3 26 12 29 20 3 8 12 14 21 14 8 0 15 9
15 20 0 16 7 20 31 20 23 0 32 5 36 21 3 11 11 18 18 15 7 -2 21 4 31 15 14
15 14 19 3 14 -9 -3 -24 2 -35 12 -11 10 -15 15 -10 11 6 -5 17 -8 26 -7 10 0
11 2 3 6 -7 2 -13 10 -13 18 0 21 -84 92 -148 124 -62 31 -304 129 -2287 924
-665 267 -1228 493 -1250 502 -31 13 -36 13 -25 2z m3673 -1600 c4 3 7 1 7 -5
0 -17 -16 -15 -31 6 -12 15 -12 16 2 5 9 -7 19 -10 22 -6z m107 -51 c0 -11
-19 -15 -25 -6 -3 5 1 10 9 10 9 0 16 -2 16 -4z m-40 -30 c0 -11 -19 -15 -25
-6 -3 5 1 10 9 10 9 0 16 -2 16 -4z m-47 -12 c-7 -3 -9 -12 -6 -20 3 -9 -2
-14 -16 -14 -12 0 -21 2 -21 5 0 13 26 34 40 34 9 0 10 -2 3 -5z m87 -24 c0
-5 -5 -10 -11 -10 -5 0 -7 5 -4 10 3 6 8 10 11 10 2 0 4 -4 4 -10z m-260 -10
c0 -5 -2 -10 -4 -10 -3 0 -8 5 -11 10 -3 6 -1 10 4 10 6 0 11 -4 11 -10z m110
-15 c-12 -15 -30 -12 -30 6 0 5 10 9 21 9 18 0 19 -2 9 -15z m90 8 c-1 -18
-18 -35 -24 -24 -4 6 -2 11 4 11 6 0 8 5 5 10 -3 6 -1 10 4 10 6 0 11 -3 11
-7z m105 -3 c-3 -5 -12 -10 -18 -10 -7 0 -6 4 3 10 19 12 23 12 15 0z m-345
-20 c0 -5 -2 -10 -4 -10 -3 0 -8 5 -11 10 -3 6 -1 10 4 10 6 0 11 -4 11 -10z
m175 -11 c11 -17 -1 -21 -15 -4 -8 9 -8 15 -2 15 6 0 14 -5 17 -11z m111 -14
c-32 -30 -46 -32 -46 -6 0 15 8 21 33 24 17 2 34 5 36 5 2 1 -8 -9 -23 -23z
m74 4 c0 -11 -3 -11 -24 -3 -23 9 -20 23 4 17 11 -3 20 -9 20 -14z m-222 -28
c3 -8 0 -11 -7 -7 -6 4 -11 1 -12 -6 0 -10 -2 -10 -6 0 -2 6 -11 12 -19 12 -9
0 -13 4 -10 9 9 13 49 8 54 -8z m182 -3 c0 -11 -12 -10 -30 2 -12 7 -10 9 8 7
12 0 22 -5 22 -9z m-100 -13 c-7 -9 -15 -13 -17 -11 -7 7 7 26 19 26 6 0 6 -6
-2 -15z m75 -1 c13 -5 14 -8 3 -15 -19 -13 -28 -11 -28 6 0 17 2 18 25 9z
m109 -10 c4 -9 2 -22 -4 -29 -5 -6 -7 -15 -3 -18 3 -4 1 -7 -5 -7 -7 0 -11 -3
-11 -7 3 -20 -3 -29 -20 -30 -13 -1 -20 7 -24 25 -6 32 1 52 19 52 20 0 17
-20 -3 -21 -16 -1 -17 -2 -1 -6 10 -2 15 -10 11 -19 -3 -8 -1 -14 4 -14 5 0
10 6 11 13 0 6 3 23 6 37 3 14 0 27 -7 32 -8 5 -7 8 4 8 9 0 20 -7 23 -16z
m-159 -4 c-3 -6 1 -13 9 -16 23 -9 20 -24 -4 -24 -20 0 -28 28 -13 43 10 10
15 8 8 -3z m76 -17 c-12 -20 -14 -14 -5 12 4 9 9 14 11 11 3 -2 0 -13 -6 -23z
m-141 2 c-6 -8 -9 -19 -5 -25 3 -5 0 -10 -8 -10 -16 0 -19 32 -3 42 19 13 29
9 16 -7z m250 -15 c-6 -11 -12 -20 -14 -20 -3 0 -1 23 3 38 1 1 6 2 11 2 7 0
7 -6 0 -20z m70 -10 c13 -8 13 -10 -2 -10 -9 0 -20 5 -23 10 -8 13 5 13 25 0z
m-205 -20 c3 -5 1 -10 -4 -10 -6 0 -11 5 -11 10 0 6 2 10 4 10 3 0 8 -4 11
-10z m165 -10 c13 -8 13 -10 -2 -10 -9 0 -20 5 -23 10 -8 13 5 13 25 0z m-124
-37 c7 -7 19 -13 26 -13 10 0 9 -3 -2 -10 -21 -14 -30 -12 -30 5 0 9 -6 12
-15 9 -10 -4 -15 0 -15 13 0 24 13 39 19 21 2 -7 10 -18 17 -25z m75 5 c-11
-11 -24 -17 -30 -13 -8 4 -3 13 11 25 30 24 43 15 19 -12z m-156 12 c3 -5 1
-10 -4 -10 -6 0 -11 5 -11 10 0 6 2 10 4 10 3 0 8 -4 11 -10z m245 -10 c8 -5
11 -12 8 -16 -4 -3 -14 1 -23 10 -18 17 -9 21 15 6z m-79 -27 c-12 -20 -14
-14 -5 12 4 9 9 14 11 11 3 -2 0 -13 -6 -23z m-180 -6 c-10 -9 -11 -8 -5 6 3
10 9 15 12 12 3 -3 0 -11 -7 -18z m200 -14 c-12 -20 -14 -14 -5 12 4 9 9 14
11 11 3 -2 0 -13 -6 -23z m70 -65 c-11 -11 -24 -17 -30 -13 -8 4 -3 13 11 25
30 24 43 15 19 -12z m99 -8 c0 -5 -5 -10 -11 -10 -5 0 -7 5 -4 10 3 6 8 10 11
10 2 0 4 -4 4 -10z m-60 -17 c-1 -18 -18 -35 -24 -24 -4 6 -2 11 4 11 6 0 8 5
5 10 -3 6 -1 10 4 10 6 0 11 -3 11 -7z m-65 -34 c11 -17 -1 -21 -15 -4 -8 9
-8 15 -2 15 6 0 14 -5 17 -11z"/>
<path d="M36000 27210 c8 -5 20 -10 25 -10 6 0 3 5 -5 10 -8 5 -19 10 -25 10
-5 0 -3 -5 5 -10z"/>
<path d="M36725 27170 c3 -5 8 -10 11 -10 2 0 4 5 4 10 0 6 -5 10 -11 10 -5 0
-7 -4 -4 -10z"/>
<path d="M36361 27091 c-14 -4 -26 -12 -29 -19 -3 -9 4 -11 25 -6 l28 7 -19
-22 c-15 -16 -16 -21 -5 -21 8 0 21 6 28 13 10 8 12 8 7 0 -10 -17 10 -25 23
-9 9 11 8 17 -7 28 -11 7 -20 17 -20 21 -1 13 -5 14 -31 8z"/>
<path d="M49817 26821 l-458 -87 62 -44 61 -45 -46 -3 c-40 -3 -52 2 -100 37
-51 38 -86 52 -86 34 0 -5 19 -21 43 -38 l42 -30 -150 -6 c-82 -4 -175 -7
-205 -9 -43 -1 741 -117 1248 -184 l52 -7 0 236 c0 129 -1 234 -2 234 -2 -1
-209 -40 -461 -88z"/>
<path d="M36576 26825 c-25 -19 -14 -30 16 -15 22 11 22 10 4 -4 -28 -22 -12
-32 19 -12 22 15 24 19 11 31 -18 18 -26 18 -50 0z"/>
<path d="M37008 26823 c-10 -2 -18 -9 -18 -14 0 -6 -13 -15 -30 -20 -16 -6
-27 -15 -24 -20 3 -5 -4 -9 -15 -9 -12 0 -29 -8 -39 -18 -10 -10 -26 -21 -35
-25 -27 -10 -20 -28 8 -21 15 4 25 2 25 -5 0 -6 -4 -11 -10 -11 -5 0 -10 -4
-10 -10 0 -5 7 -7 15 -4 8 4 15 1 15 -6 0 -6 -4 -9 -9 -5 -5 3 -12 1 -16 -5
-4 -6 -11 -8 -16 -4 -5 3 -7 10 -4 15 4 5 -5 13 -19 19 -14 5 -26 12 -26 15 0
4 6 3 13 -1 6 -4 4 2 -7 14 -10 12 -23 19 -28 16 -4 -3 -7 0 -6 7 2 7 -7 18
-20 24 -12 5 -20 16 -17 22 2 7 -2 13 -10 13 -18 0 -15 -35 5 -53 10 -10 11
-9 5 3 -8 13 -6 13 8 1 9 -7 15 -16 12 -20 -2 -4 5 -14 16 -21 10 -8 19 -20
19 -27 0 -7 7 -13 15 -13 8 0 15 -7 15 -16 0 -8 4 -13 9 -9 5 3 13 0 17 -7 4
-7 4 -10 -1 -6 -4 4 -14 3 -22 -3 -13 -11 -14 -10 -17 14 -1 13 -45 11 -60 -3
-15 -15 4 -33 20 -19 8 6 18 9 22 5 4 -4 -1 -14 -11 -21 -10 -7 -14 -16 -8
-19 12 -8 61 14 61 26 0 5 9 6 20 3 18 -6 25 3 21 27 0 4 13 6 31 4 29 -3 58
-28 58 -48 0 -4 8 -8 17 -8 15 0 14 -2 -3 -15 -18 -14 -17 -15 11 -9 29 6 29
6 10 -11 -17 -14 -17 -16 -2 -11 10 3 26 -3 40 -17 l22 -22 3 24 c2 13 -2 27
-9 32 -8 4 -11 11 -7 14 3 4 16 -3 28 -15 12 -12 25 -18 29 -13 3 5 34 29 68
55 34 25 59 48 56 52 -3 3 -14 1 -25 -5 -17 -9 -18 -8 -7 9 10 16 10 23 -4 36
-8 9 -21 16 -27 16 -7 0 -10 7 -6 15 7 18 -15 20 -33 3 -10 -11 -12 -10 -9 2
2 8 -3 14 -9 13 -7 -2 -13 2 -13 8 0 6 9 8 23 4 21 -6 21 -6 3 9 -11 9 -16 16
-12 16 4 0 -8 14 -26 30 -32 30 -38 32 -70 23z m76 -42 c3 -5 0 -11 -7 -14 -8
-3 -14 1 -14 9 0 16 13 19 21 5z m-99 -21 c3 -5 -1 -10 -10 -10 -9 0 -13 5
-10 10 3 6 8 10 10 10 2 0 7 -4 10 -10z m59 -6 c24 -9 19 -19 -12 -20 -15 -1
-21 1 -14 3 6 3 10 9 6 14 -6 11 -2 11 20 3z m-74 -20 c0 -2 -9 -4 -20 -4 -11
0 -20 4 -20 9 0 5 9 7 20 4 11 -3 20 -7 20 -9z m-61 -21 c-7 -10 -15 -20 -16
-22 -2 -2 -3 5 -3 17 0 14 6 22 16 22 14 0 15 -3 3 -17z m91 9 c0 -5 -6 -17
-14 -27 -13 -18 -13 -17 -11 6 3 30 3 29 15 29 6 0 10 -4 10 -8z m89 -23 c-10
-20 -21 -26 -16 -10 1 5 -2 9 -8 9 -5 0 -9 -4 -7 -9 1 -5 -2 -9 -8 -9 -5 0 -9
-3 -9 -7 3 -21 -3 -29 -22 -30 -15 -1 -20 3 -17 20 2 14 10 21 20 21 10 -1 20
6 23 16 3 10 15 18 30 18 21 0 23 -3 14 -19z m-159 -9 c0 -5 -2 -10 -4 -10 -3
0 -8 5 -11 10 -3 6 -1 10 4 10 6 0 11 -4 11 -10z m230 0 c13 -8 13 -10 -2 -10
-9 0 -20 5 -23 10 -8 13 5 13 25 0z m-180 -40 c11 -11 20 -24 20 -30 0 -5 8
-10 18 -10 14 0 15 -2 2 -10 -22 -14 -30 -12 -30 6 0 14 -3 14 -15 4 -12 -10
-15 -9 -15 8 0 11 6 23 13 25 11 5 -18 11 -36 8 -5 -1 -6 3 -2 9 9 15 23 12
45 -10z m153 8 c-6 -11 -31 -10 -37 1 -3 5 5 8 18 7 13 0 22 -4 19 -8z m-62
-30 c-11 -11 -24 -17 -30 -13 -8 4 -3 13 11 25 30 24 43 15 19 -12z m92 -2 c3
-8 -1 -17 -9 -20 -9 -4 -12 -2 -8 5 4 6 0 15 -7 20 -11 7 -11 9 2 9 9 0 19 -6
22 -14z m-82 -23 c-12 -20 -14 -14 -5 12 4 9 9 14 11 11 3 -2 0 -13 -6 -23z
m49 -15 c0 -6 -7 -7 -16 -4 -14 5 -15 4 -4 -9 11 -13 10 -15 -8 -12 -12 2 -25
7 -29 12 -5 4 -3 5 4 1 7 -3 14 2 18 13 6 20 35 19 35 -1z m-80 -2 c0 -2 -7
-6 -15 -10 -8 -3 -15 -1 -15 4 0 6 7 10 15 10 8 0 15 -2 15 -4z"/>
<path d="M37020 26670 c0 -5 5 -10 11 -10 5 0 7 5 4 10 -3 6 -8 10 -11 10 -2
0 -4 -4 -4 -10z"/>
<path d="M36618 26786 c-22 -17 -22 -22 -1 -30 10 -4 14 -4 11 0 -4 3 3 15 15
25 26 22 3 27 -25 5z"/>
<path d="M36653 26766 c3 -7 1 -18 -5 -24 -8 -8 -3 -10 18 -8 15 2 30 8 32 15
2 6 -3 9 -12 5 -11 -4 -16 -1 -16 10 0 9 -5 16 -11 16 -6 0 -9 -6 -6 -14z"/>
<path d="M36676 26715 c-25 -19 -12 -33 14 -17 11 7 20 9 19 5 -3 -20 2 -24
16 -13 12 10 13 16 4 26 -14 18 -29 17 -53 -1z"/>
<path d="M36725 26679 c-4 -6 -13 -8 -21 -5 -8 3 -11 0 -8 -9 3 -7 12 -16 20
-19 9 -3 12 -1 9 5 -4 6 2 8 18 4 14 -4 28 -2 31 4 4 6 0 11 -9 11 -9 0 -13 5
-10 10 3 6 -1 10 -9 10 -8 0 -18 -5 -21 -11z"/>
<path d="M36874 26598 c-5 -16 -30 -24 -57 -19 -5 1 -6 -3 -2 -9 3 -5 1 -10
-4 -10 -16 0 -13 -20 3 -26 8 -3 27 6 43 20 30 28 49 21 38 -14 -6 -19 -8 -19
-18 -6 -11 14 -13 13 -23 -9 -11 -24 -11 -24 20 -21 18 2 31 9 31 17 0 8 5 14
10 14 6 0 9 -3 8 -7 -2 -5 4 -8 13 -8 8 0 12 -4 9 -10 -3 -5 1 -10 10 -10 9 0
14 -4 10 -9 -3 -6 4 -15 15 -21 11 -6 20 -17 20 -25 0 -8 6 -14 13 -12 6 1 11
-4 10 -10 -2 -7 5 -13 14 -13 9 0 13 -3 10 -6 -3 -4 7 -19 23 -34 17 -16 30
-33 30 -39 0 -6 6 -11 14 -11 7 0 16 -9 19 -20 3 -11 11 -19 19 -18 7 2 12 -3
11 -9 -2 -7 2 -13 7 -13 6 0 10 -4 10 -10 0 -5 -9 -10 -19 -10 -11 0 -23 -5
-26 -11 -4 -6 -13 -8 -21 -5 -12 4 -12 2 -4 -14 14 -26 25 -25 57 4 15 14 30
23 35 20 13 -8 -2 -77 -19 -91 -21 -16 1 -26 29 -13 22 11 22 10 4 -4 -29 -23
-11 -32 21 -11 16 11 23 20 15 23 -20 6 -14 22 9 22 11 0 18 -4 14 -9 -3 -6 4
-15 15 -21 11 -6 20 -17 20 -25 0 -8 6 -14 13 -12 6 1 11 -4 10 -10 -2 -7 5
-13 14 -13 9 0 13 -3 10 -6 -3 -4 7 -19 23 -34 17 -16 30 -33 30 -39 0 -6 6
-11 14 -11 7 0 16 -9 19 -20 3 -11 10 -19 15 -18 6 2 10 -1 10 -5 1 -5 11 -17
23 -28 27 -23 29 -87 4 -106 -23 -16 -1 -27 27 -13 22 11 22 10 4 -4 -29 -23
-11 -32 21 -11 16 11 23 20 15 23 -20 6 -14 22 9 22 11 0 18 -4 14 -9 -3 -6 4
-15 15 -21 11 -6 20 -17 20 -25 0 -8 6 -14 13 -12 6 1 11 -4 10 -10 -2 -7 5
-13 14 -13 9 0 14 -3 10 -6 -11 -11 43 -56 60 -50 14 6 12 11 -12 36 -16 17
-35 30 -43 30 -8 0 -12 6 -8 15 4 10 -1 15 -15 15 -13 0 -19 6 -17 18 2 10 -2
16 -10 14 -8 -1 -11 2 -8 7 3 5 -1 15 -10 22 -14 12 -14 14 5 21 16 5 27 2 44
-15 l22 -22 3 24 c2 13 -2 27 -9 32 -8 4 -11 11 -7 14 3 4 16 -3 27 -14 l21
-21 22 20 c21 19 33 24 52 21 5 -1 4 4 -2 12 -7 8 -9 16 -6 19 2 3 -9 17 -25
31 -16 13 -27 28 -24 31 6 6 -13 10 -30 7 -5 -1 -7 3 -5 9 2 7 7 11 11 11 4
-1 13 -1 21 -1 8 0 16 -10 18 -22 2 -17 10 -23 29 -23 21 0 25 -3 21 -22 -3
-18 -1 -22 12 -17 9 3 16 2 16 -2 -1 -15 -24 -40 -42 -47 -10 -3 -18 -10 -18
-16 0 -5 -9 -11 -20 -14 -11 -3 -20 -10 -20 -16 0 -18 19 -13 47 13 15 14 30
23 35 20 4 -3 8 4 8 16 0 14 5 20 16 18 8 -2 15 -7 15 -13 1 -16 31 -45 40
-39 5 3 9 -2 9 -11 0 -11 -5 -15 -14 -12 -7 3 -20 0 -27 -6 -11 -10 -11 -9 -1
4 10 13 9 19 -2 28 -18 15 -52 6 -60 -14 -7 -18 10 -20 18 -2 3 6 3 2 0 -10
-6 -24 10 -32 20 -10 3 6 3 2 0 -10 -3 -13 -1 -23 5 -23 6 0 11 4 11 8 0 10
71 34 78 27 3 -3 0 -11 -7 -18 -9 -12 -7 -14 11 -13 13 0 22 -4 21 -11 -2 -6
9 -21 22 -31 27 -22 33 -37 11 -29 -7 3 -19 0 -25 -6 -8 -8 -11 -8 -11 1 0 7
5 12 11 12 8 0 8 5 -1 15 -16 19 -35 19 -55 -1 -12 -12 -13 -19 -4 -30 13 -16
33 -19 24 -4 -3 6 -1 10 5 10 7 0 9 -8 5 -20 -3 -11 -2 -20 3 -20 6 0 12 5 14
11 2 5 23 13 46 16 23 3 45 10 48 15 3 4 0 7 -7 6 -7 -2 -14 4 -14 12 0 8 -7
14 -14 12 -7 -1 -10 2 -7 7 4 5 -8 20 -26 32 -52 36 -61 53 -35 61 17 5 18 6
4 7 -23 1 -87 52 -87 69 0 7 4 11 9 7 5 -3 12 -1 16 5 3 5 -1 10 -9 10 -8 0
-18 -5 -21 -10 -5 -8 -11 -7 -21 1 -7 6 -12 15 -9 19 3 5 -8 19 -24 33 -17 14
-28 27 -25 30 3 3 -4 8 -15 12 -12 3 -19 10 -16 15 3 5 13 7 23 4 10 -4 13 -3
6 3 -6 4 -14 15 -17 23 -4 12 -6 12 -6 -2 -1 -20 -36 -17 -36 3 -1 8 -7 13
-14 11 -7 -1 -10 2 -7 7 4 5 -2 14 -11 20 -10 5 -14 13 -10 17 4 4 17 -2 30
-14 13 -12 27 -22 31 -22 5 0 -7 13 -25 30 -19 16 -40 28 -47 25 -8 -3 -20 -5
-28 -5 -8 0 -14 -5 -14 -11 0 -5 4 -8 9 -4 5 3 12 1 16 -5 4 -6 -6 -10 -24
-10 -36 0 -63 -9 -56 -20 3 -5 -8 -11 -25 -15 -16 -4 -33 -12 -37 -19 -5 -7
-16 -15 -25 -19 -28 -10 -21 -24 12 -23 22 1 30 6 30 20 0 13 5 17 20 13 13
-3 20 0 20 9 0 8 6 11 15 8 9 -4 15 0 15 10 0 9 5 16 10 16 12 0 12 -17 1 -44
-5 -13 -10 -16 -15 -8 -8 13 -44 -3 -59 -25 -4 -7 -15 -13 -22 -13 -18 0 -20
-16 -3 -26 6 -4 8 -3 5 3 -4 6 4 11 19 11 24 0 24 -1 7 -21 -18 -19 -17 -19 7
-12 23 7 24 7 10 -10 -14 -16 -13 -17 8 -11 13 5 22 3 22 -3 0 -6 -5 -11 -11
-11 -6 0 -9 -7 -6 -15 9 -21 -9 -27 -24 -8 -12 14 -12 16 1 8 10 -5 8 -1 -4
13 -10 12 -23 19 -29 15 -6 -3 -7 -1 -3 5 3 6 -3 16 -14 22 -11 6 -18 15 -15
21 4 5 -5 13 -19 19 -14 5 -26 12 -26 15 0 4 6 3 13 -1 6 -4 -4 9 -22 29 -19
21 -41 37 -49 37 -8 0 -12 6 -8 15 4 10 -1 15 -15 15 -13 0 -19 6 -17 18 2 10
-2 16 -10 14 -8 -1 -11 2 -8 7 3 5 -1 15 -10 22 -14 12 -14 14 5 21 16 5 27 2
44 -15 l22 -22 3 24 c2 13 -2 27 -9 32 -8 4 -11 11 -7 14 3 4 16 -3 27 -14
l21 -21 22 20 c21 19 33 24 52 21 5 -1 4 4 -2 12 -7 8 -9 16 -6 19 2 3 -10 18
-28 33 -18 16 -26 25 -18 22 8 -4 23 -10 32 -13 10 -3 20 -15 23 -25 6 -18 8
-19 35 -2 32 18 31 39 -1 22 -18 -9 -19 -9 -7 12 10 17 10 23 1 26 -7 3 -13
12 -13 20 0 9 -6 13 -15 9 -18 -6 -60 7 -60 20 0 5 -3 8 -7 7 -5 -2 -8 2 -8 8
0 6 9 8 23 4 21 -6 21 -6 3 9 -11 9 -16 16 -12 16 5 0 -7 14 -25 30 -35 31
-75 34 -91 5 -4 -7 -19 -16 -33 -19 -14 -4 -23 -11 -20 -15 3 -5 -8 -12 -25
-16 -16 -4 -33 -12 -37 -19 -5 -7 -16 -15 -25 -19 -28 -10 -21 -24 12 -23 22
1 30 6 30 20 0 13 5 17 20 13 13 -3 20 0 20 9 0 8 6 11 15 8 9 -4 15 0 15 10
0 9 5 16 10 16 12 0 12 -17 1 -44 -5 -13 -10 -16 -15 -8 -8 13 -44 -3 -59 -25
-4 -7 -15 -13 -22 -13 -18 0 -20 -16 -3 -26 6 -4 8 -3 5 3 -4 6 4 11 19 11 24
0 24 -1 7 -21 -17 -19 -17 -20 0 -14 11 4 25 -1 37 -13 20 -20 20 -20 20 -1 0
11 6 22 13 24 7 3 5 6 -5 6 -10 1 -18 6 -18 11 0 14 37 -5 43 -22 2 -7 7 11
11 39 9 63 24 79 21 23 -1 -22 2 -40 6 -40 5 0 8 3 7 8 -6 22 15 50 36 50 17
0 23 -5 19 -14 -3 -8 1 -14 11 -14 9 0 16 -4 16 -9 0 -5 -11 -8 -25 -7 -14 0
-24 6 -22 13 1 6 -2 12 -8 12 -5 1 -10 -9 -10 -21 0 -13 5 -22 13 -20 6 1 12
-3 12 -9 0 -6 -9 -8 -22 -4 -21 6 -22 5 -5 -8 16 -13 16 -15 1 -21 -23 -9 -24
-8 -24 17 -1 22 -1 22 -15 2 -13 -17 -13 -20 0 -28 21 -12 19 -27 -5 -27 -14
0 -20 7 -20 23 -1 21 -1 21 -15 3 -13 -17 -12 -21 3 -32 9 -7 15 -14 12 -16
-75 -56 -80 -59 -86 -44 -9 23 5 39 22 25 11 -9 14 -8 14 4 0 8 3 24 6 34 5
17 5 17 -6 1 -6 -10 -15 -18 -20 -18 -17 0 -11 39 8 49 13 9 9 10 -21 7 -20
-3 -35 -1 -32 4 3 5 -4 14 -15 20 -11 6 -18 15 -15 21 4 5 -5 13 -19 19 -14 5
-26 12 -26 15 0 4 6 3 13 -1 6 -4 -4 9 -22 29 -19 21 -41 37 -49 37 -8 0 -12
6 -8 15 4 10 -1 15 -15 15 -13 0 -19 6 -17 18 2 11 -2 16 -12 14 -8 -2 -12 0
-7 4 9 9 -22 44 -40 44 -9 0 -12 9 -8 33 4 25 3 28 -5 15 -6 -10 -15 -18 -20
-18 -17 0 -11 39 8 49 14 8 11 10 -16 8 -21 -1 -34 -8 -38 -19z m496 -132 c0
-3 -4 -8 -10 -11 -5 -3 -10 -1 -10 4 0 6 5 11 10 11 6 0 10 -2 10 -4z m-40
-30 c0 -3 -4 -8 -10 -11 -5 -3 -10 -1 -10 4 0 6 5 11 10 11 6 0 10 -2 10 -4z
m-20 -53 c0 -11 -20 -40 -20 -29 0 4 -11 1 -24 -7 -22 -15 -25 -15 -37 -1 -11
13 -10 15 2 13 23 -5 70 11 64 21 -3 6 -1 10 4 10 6 0 11 -3 11 -7z m85 -113
c-4 -11 -2 -20 4 -20 6 0 11 5 11 12 0 6 3 8 7 5 3 -4 12 -2 19 4 8 7 14 6 20
-2 5 -8 3 -9 -6 -4 -10 6 -12 4 -7 -10 6 -14 3 -16 -13 -12 -18 4 -19 3 -9 -9
10 -12 8 -14 -12 -11 -13 2 -24 9 -24 15 0 6 -3 13 -7 17 -4 4 -1 13 5 21 17
19 19 17 12 -6z m263 -189 c25 -21 29 -36 8 -28 -7 3 -19 0 -25 -6 -8 -8 -11
-8 -11 1 0 7 5 12 12 12 9 0 9 3 0 12 -10 10 -15 10 -22 -2 -11 -17 -13 -9 -4
14 8 20 14 20 42 -3z m-43 -51 c-4 -11 -2 -20 4 -20 6 0 11 5 11 10 0 6 4 10
10 10 6 0 6 -9 0 -25 -7 -19 -6 -25 4 -25 7 0 13 7 14 15 1 8 3 22 4 30 1 10
12 15 31 15 32 0 32 -10 1 -14 -12 -2 -19 -11 -19 -27 0 -14 5 -23 13 -21 6 1
12 -3 12 -9 0 -6 -9 -8 -22 -4 -22 6 -22 6 -4 -9 11 -9 17 -16 14 -16 -4 0
-13 -3 -22 -6 -12 -4 -16 0 -16 15 0 12 -6 21 -15 21 -8 0 -15 7 -15 16 0 8
-5 12 -10 9 -6 -4 -10 -3 -9 2 4 21 -3 24 -25 10 -22 -15 -25 -15 -37 -1 -11
13 -10 15 2 13 23 -5 70 11 64 21 -3 6 -1 10 5 10 7 0 9 -8 5 -20z m-25 -44
c0 -2 -7 -9 -15 -16 -13 -11 -14 -10 -9 4 5 14 24 23 24 12z m20 -25 c0 -5 -7
-11 -15 -15 -15 -5 -20 5 -8 17 9 10 23 9 23 -2z m17 -15 c-3 -8 1 -17 9 -20
21 -8 17 -26 -6 -26 -11 0 -20 6 -20 14 0 18 10 46 17 46 3 0 3 -6 0 -14z m78
-16 c-4 -11 -2 -20 4 -20 6 0 11 5 11 12 0 6 3 8 7 5 3 -4 12 -2 19 4 8 7 14
6 20 -2 5 -8 3 -9 -6 -4 -10 6 -12 4 -7 -10 6 -14 3 -16 -13 -12 -18 4 -19 3
-9 -9 10 -12 8 -14 -12 -11 -13 2 -24 9 -24 15 0 6 -3 13 -7 17 -4 4 -1 13 5
21 17 19 19 17 12 -6z m-118 -12 c-2 -7 3 -18 12 -25 9 -6 14 -13 11 -15 -65
-49 -80 -57 -85 -48 -4 6 -4 18 -1 27 5 12 9 13 21 3 12 -10 15 -10 15 3 0 17
20 67 27 67 3 0 3 -6 0 -12z"/>
<path d="M37222 26608 c-7 -7 -12 -8 -12 -3 0 5 -7 -1 -16 -13 -8 -12 -19 -20
-23 -18 -4 3 -14 -5 -21 -18 -7 -14 -21 -27 -31 -29 -11 -3 -19 -10 -19 -16 0
-18 19 -13 47 13 28 27 54 25 28 -1 -9 -8 -13 -18 -10 -21 3 -4 11 0 16 8 8
11 9 10 4 -7 -7 -24 9 -32 19 -10 3 6 3 2 0 -10 -3 -13 -1 -23 5 -23 6 0 11 5
11 10 0 6 5 10 11 10 5 0 7 -4 4 -10 -12 -19 27 -10 59 15 18 14 36 22 39 18
4 -3 7 1 7 11 0 14 -3 15 -21 5 -13 -6 -19 -7 -15 -1 3 6 0 13 -6 15 -8 3 -6
6 5 6 16 1 15 4 -7 26 -14 14 -30 25 -37 25 -6 0 -9 7 -5 15 7 18 -15 20 -32
3z m38 -28 c13 -8 13 -10 -2 -10 -9 0 -20 5 -23 10 -8 13 5 13 25 0z m-40 -30
c13 -8 13 -10 -2 -10 -9 0 -20 5 -23 10 -8 13 5 13 25 0z m50 -40 c0 -5 -5
-10 -11 -10 -5 0 -7 5 -4 10 3 6 8 10 11 10 2 0 4 -4 4 -10z"/>
<path d="M37005 26510 c3 -5 8 -10 11 -10 2 0 4 5 4 10 0 6 -5 10 -11 10 -5 0
-7 -4 -4 -10z"/>
<path d="M37073 26499 c-18 -18 -16 -29 4 -29 15 0 14 -2 -3 -15 -18 -14 -17
-15 11 -9 29 6 29 6 10 -10 -20 -17 -20 -17 5 -10 23 6 24 6 10 -11 -14 -17
-13 -17 10 -10 23 7 24 7 10 -10 -14 -17 -13 -17 10 -10 14 4 29 14 33 21 4 8
15 14 22 14 8 0 15 6 15 14 0 18 -25 38 -35 28 -5 -4 -5 -2 -2 4 12 21 -21 38
-49 25 -32 -14 -32 -14 -36 5 -2 12 -5 13 -15 3z m77 -23 c0 -2 -7 -6 -15 -10
-8 -3 -15 -1 -15 4 0 6 7 10 15 10 8 0 15 -2 15 -4z m10 -20 c0 -3 -4 -8 -10
-11 -5 -3 -10 -1 -10 4 0 6 5 11 10 11 6 0 10 -2 10 -4z m20 -20 c0 -2 -7 -9
-15 -16 -13 -11 -14 -10 -9 4 5 14 24 23 24 12z"/>
<path d="M36886 26485 c-25 -19 -14 -30 16 -15 22 11 22 10 4 -4 -28 -22 -12
-32 19 -12 22 15 24 19 11 31 -18 18 -26 18 -50 0z"/>
<path d="M36926 26439 c-19 -23 0 -26 24 -4 15 14 17 13 15 -6 -1 -11 -8 -25
-16 -30 -9 -6 -3 -8 21 -5 19 2 36 9 38 16 3 9 -1 11 -11 7 -11 -4 -17 1 -19
15 -4 27 -31 31 -52 7z"/>
<path d="M36986 26375 c-25 -19 -14 -30 16 -15 22 11 22 10 4 -4 -28 -22 -12
-32 19 -12 22 15 24 19 11 31 -18 18 -26 18 -50 0z"/>
<path d="M37445 26380 c3 -5 8 -10 11 -10 2 0 4 5 4 10 0 6 -5 10 -11 10 -5 0
-7 -4 -4 -10z"/>
<path d="M37028 26336 c-22 -16 -22 -22 -2 -30 9 -3 12 -2 9 5 -4 6 2 8 18 4
14 -4 28 -2 31 4 4 6 0 11 -9 11 -9 0 -13 5 -10 10 9 14 -17 12 -37 -4z"/>
<path d="M37085 26302 c-27 -5 -39 -18 -30 -32 5 -8 11 -8 21 1 8 6 18 9 22 5
4 -4 -2 -14 -12 -22 -15 -10 -16 -14 -5 -14 8 0 21 6 28 13 10 8 12 8 7 0 -10
-18 10 -25 24 -9 9 12 7 17 -10 26 -11 6 -18 15 -15 20 7 12 -6 17 -30 12z"/>
<path d="M37535 26270 c-4 -6 -10 -8 -14 -6 -4 3 -14 -6 -21 -19 -7 -14 -20
-25 -27 -25 -7 0 -16 -6 -19 -14 -3 -8 -14 -16 -25 -19 -10 -3 -19 -10 -19
-16 0 -18 19 -13 47 13 15 14 30 23 35 20 4 -3 8 4 8 16 0 15 5 20 18 18 9 -2
16 -9 15 -16 -2 -6 9 -20 22 -30 27 -22 33 -37 11 -29 -7 3 -20 0 -27 -6 -11
-10 -11 -9 -1 4 10 13 9 19 -2 28 -18 15 -52 6 -60 -14 -7 -18 10 -20 18 -2 3
6 3 2 0 -10 -6 -24 10 -32 20 -10 3 6 3 2 0 -10 -3 -13 -1 -23 5 -23 6 0 11 4
11 10 0 5 17 12 38 15 20 4 44 9 52 12 8 4 18 5 23 5 4 -1 7 5 7 14 0 8 -4 12
-10 9 -5 -3 -18 -1 -27 4 -17 10 -17 10 0 11 15 0 14 3 -7 25 -14 14 -30 25
-37 25 -6 0 -9 7 -5 15 6 17 -19 21 -29 5z m35 -30 c13 -8 13 -10 -2 -10 -9 0
-20 5 -23 10 -8 13 5 13 25 0z m50 -70 c0 -5 -2 -10 -4 -10 -3 0 -8 5 -11 10
-3 6 -1 10 4 10 6 0 11 -4 11 -10z"/>
<path d="M37163 26184 c-9 -19 -8 -24 2 -24 16 0 29 30 18 41 -4 4 -13 -3 -20
-17z"/>
<path d="M37315 26170 c3 -5 8 -10 11 -10 2 0 4 5 4 10 0 6 -5 10 -11 10 -5 0
-7 -4 -4 -10z"/>
<path d="M37383 26159 c-18 -18 -16 -29 4 -29 15 0 14 -2 -3 -15 -18 -14 -17
-15 11 -9 29 6 29 6 10 -10 -20 -17 -20 -17 5 -10 23 6 24 6 10 -11 -14 -17
-13 -17 10 -10 23 7 24 7 10 -10 -14 -17 -13 -17 10 -10 14 4 29 14 33 21 4 8
15 14 22 14 8 0 15 6 15 14 0 18 -25 38 -35 28 -5 -4 -5 -2 -2 4 12 21 -21 38
-49 25 -32 -14 -32 -14 -36 5 -2 12 -5 13 -15 3z m77 -23 c0 -2 -7 -6 -15 -10
-8 -3 -15 -1 -15 4 0 6 7 10 15 10 8 0 15 -2 15 -4z m10 -20 c0 -3 -4 -8 -10
-11 -5 -3 -10 -1 -10 4 0 6 5 11 10 11 6 0 10 -2 10 -4z m20 -20 c0 -2 -7 -9
-15 -16 -13 -11 -14 -10 -9 4 5 14 24 23 24 12z"/>
<path d="M37236 26099 c-19 -23 0 -26 24 -4 15 14 17 13 15 -6 -1 -11 -8 -25
-16 -30 -9 -6 -3 -8 21 -5 19 2 36 9 38 16 3 9 -1 11 -11 7 -11 -4 -17 1 -19
15 -4 27 -31 31 -52 7z"/>
<path d="M37296 26035 c-25 -19 -14 -30 16 -15 22 11 22 10 4 -4 -28 -22 -12
-32 19 -12 22 15 24 19 11 31 -18 18 -26 18 -50 0z"/>
<path d="M37780 26017 c0 -7 9 -18 20 -25 12 -7 20 -8 20 -2 0 5 -4 10 -10 10
-5 0 -10 7 -10 15 0 8 -4 15 -10 15 -5 0 -10 -6 -10 -13z"/>
<path d="M37338 25996 c-22 -16 -22 -22 -2 -30 9 -3 12 -2 9 5 -4 6 2 8 18 4
14 -4 28 -2 31 4 4 6 0 11 -9 11 -9 0 -13 5 -10 10 9 14 -17 12 -37 -4z"/>
<path d="M37395 25962 c-27 -5 -39 -18 -30 -32 5 -8 11 -8 21 1 8 6 18 9 22 5
4 -4 -2 -14 -12 -22 -15 -10 -16 -14 -5 -14 8 0 21 6 28 13 10 8 12 8 7 0 -10
-18 10 -25 24 -9 9 12 7 17 -10 26 -11 6 -18 15 -15 20 7 12 -6 17 -30 12z"/>
<path d="M37830 25960 c0 -5 5 -10 11 -10 5 0 7 5 4 10 -3 6 -8 10 -11 10 -2
0 -4 -4 -4 -10z"/>
<path d="M37895 25890 c10 -11 20 -18 23 -16 5 6 -23 36 -34 36 -4 0 1 -9 11
-20z"/>
<path d="M37445 25889 c-4 -6 -13 -8 -21 -5 -8 3 -11 0 -7 -10 3 -8 13 -12 22
-10 9 3 22 1 30 -3 12 -8 12 -12 2 -25 -11 -13 -11 -16 3 -16 9 0 17 3 17 8 7
38 5 52 -8 52 -8 0 -11 5 -8 10 3 6 -1 10 -9 10 -8 0 -18 -5 -21 -11z"/>
<path d="M37440 25849 c0 -5 5 -7 10 -4 6 3 10 8 10 11 0 2 -4 4 -10 4 -5 0
-10 -5 -10 -11z"/>
<path d="M37625 25830 c3 -5 8 -10 11 -10 2 0 4 5 4 10 0 6 -5 10 -11 10 -5 0
-7 -4 -4 -10z"/>
<path d="M37693 25819 c-18 -18 -16 -29 4 -29 15 0 14 -2 -3 -15 -18 -14 -17
-15 11 -9 29 6 29 6 10 -10 -20 -17 -20 -17 5 -10 23 6 24 6 10 -11 -14 -17
-13 -17 10 -10 22 7 23 6 12 -8 -11 -13 -10 -15 8 -10 11 3 20 10 19 17 -3 23
1 36 12 36 8 0 8 -4 0 -14 -10 -12 -8 -13 9 -9 11 3 23 10 26 15 8 13 -16 39
-29 31 -5 -3 -7 -1 -4 4 4 6 0 16 -8 23 -12 10 -21 10 -41 1 -32 -14 -32 -14
-36 5 -2 12 -5 13 -15 3z m77 -23 c0 -2 -7 -6 -15 -10 -8 -3 -15 -1 -15 4 0 6
7 10 15 10 8 0 15 -2 15 -4z m10 -20 c0 -3 -4 -8 -10 -11 -5 -3 -10 -1 -10 4
0 6 5 11 10 11 6 0 10 -2 10 -4z"/>
<path d="M37946 25822 c-2 -4 4 -9 15 -9 10 -1 19 2 19 8 0 11 -27 12 -34 1z"/>
<path d="M37999 25777 c14 -15 29 -27 33 -27 10 0 -5 16 -37 40 -15 10 -14 7
4 -13z"/>
<path d="M37546 25759 c-19 -23 0 -26 24 -4 15 14 17 13 15 -6 -1 -11 -8 -25
-16 -30 -9 -6 -3 -8 21 -5 19 2 36 9 38 16 3 9 -1 11 -11 7 -11 -4 -17 1 -19
15 -4 27 -31 31 -52 7z"/>
<path d="M37872 25763 c-6 -2 -10 -8 -7 -13 3 -4 -6 -11 -20 -14 -14 -4 -25
-11 -25 -16 0 -17 20 -11 47 14 15 14 30 23 35 20 4 -3 8 0 8 5 0 11 -16 13
-38 4z"/>
<path d="M37793 25704 c-17 -18 -16 -24 4 -24 15 0 15 -1 -1 -13 -17 -13 -17
-14 0 -28 10 -7 15 -9 11 -3 -4 7 3 12 19 12 24 0 24 -1 7 -21 -18 -19 -17
-19 7 -12 23 7 24 7 10 -10 -14 -17 -13 -17 10 -10 14 4 29 14 33 21 4 8 15
14 22 14 24 0 17 24 -15 55 -26 25 -33 27 -55 17 -32 -15 -33 -15 -37 2 -2 12
-5 12 -15 0z m106 -27 c-2 -2 -11 -8 -20 -15 -13 -10 -19 -10 -28 1 -9 11 -5
14 20 15 17 0 29 0 28 -1z m1 -31 c0 -2 -7 -9 -15 -16 -13 -11 -14 -10 -9 4 5
14 24 23 24 12z"/>
<path d="M24150 25701 c41 -24 210 -75 426 -130 320 -80 12610 -3068 12857
-3125 276 -64 485 -100 465 -81 -6 6 -280 74 -898 225 -690 167 -2313 561
-3175 771 -429 105 -834 203 -900 219 -66 16 -304 74 -530 129 -225 55 -736
179 -1135 276 -399 97 -806 196 -905 220 -99 24 -349 85 -555 135 -206 50
-568 138 -805 195 -236 58 -659 161 -940 229 -280 68 -649 158 -820 199 -170
42 -517 126 -770 188 -253 61 -755 183 -1115 271 -1194 290 -1237 300 -1200
279z"/>
<path d="M37606 25695 c-25 -19 -14 -30 16 -15 22 11 22 10 4 -4 -28 -22 -12
-32 19 -12 22 15 24 19 11 31 -18 18 -26 18 -50 0z"/>
<path d="M38020 25680 c0 -6 4 -9 9 -5 5 3 12 1 16 -5 4 -6 -6 -10 -24 -10
-36 0 -63 -9 -56 -20 3 -5 -8 -11 -25 -15 -16 -4 -33 -12 -37 -19 -5 -7 -16
-15 -25 -19 -28 -10 -21 -28 7 -21 15 4 25 2 25 -5 0 -6 -4 -11 -10 -11 -5 0
-10 -4 -10 -10 0 -5 7 -7 15 -4 8 4 15 1 15 -6 0 -6 -4 -9 -9 -5 -5 3 -12 1
-16 -5 -4 -6 -11 -8 -16 -4 -5 3 -7 10 -4 15 4 5 -5 13 -19 19 -14 5 -26 12
-26 15 0 4 6 3 13 -1 6 -4 4 2 -7 14 -10 12 -23 19 -28 16 -4 -3 -7 0 -6 7 2
7 -7 18 -20 24 -12 5 -20 16 -17 22 2 7 -2 13 -10 13 -18 0 -15 -35 5 -53 10
-10 11 -9 5 3 -8 13 -6 13 8 1 9 -7 15 -16 12 -20 -2 -4 5 -14 16 -21 10 -8
19 -20 19 -27 0 -7 7 -13 15 -13 8 0 15 -7 15 -16 0 -8 4 -13 9 -9 5 3 13 0
17 -7 4 -7 4 -10 -1 -6 -4 4 -14 3 -22 -3 -13 -11 -14 -10 -17 14 -1 13 -45
11 -60 -3 -15 -15 4 -33 20 -19 8 6 18 9 22 5 4 -4 -1 -14 -11 -21 -10 -7 -14
-16 -8 -19 12 -8 61 14 61 26 0 5 9 6 20 3 18 -6 25 3 21 27 0 4 13 6 31 4 29
-3 58 -28 58 -48 0 -4 8 -8 17 -8 15 0 14 -2 -3 -15 -18 -14 -17 -15 11 -9 29
6 29 6 10 -11 -17 -14 -17 -16 -2 -11 10 3 26 -3 40 -17 l22 -22 3 24 c2 13
-2 27 -9 32 -8 4 -11 11 -7 14 3 4 16 -3 27 -14 l21 -21 22 20 c21 19 33 24
52 21 5 -1 4 5 -4 13 -7 9 -9 16 -4 16 4 0 -3 11 -16 25 -13 14 -29 25 -36 25
-16 0 -47 -30 -39 -38 3 -4 11 0 16 8 8 11 9 10 4 -7 -4 -14 -2 -23 4 -23 6 0
11 5 11 12 0 6 3 8 7 5 3 -4 11 -3 17 3 8 6 12 3 12 -11 0 -15 -5 -19 -19 -15
-15 4 -16 2 -6 -10 10 -12 8 -14 -12 -11 -13 2 -24 9 -24 15 0 25 -23 36 -50
24 -33 -15 -35 -15 -35 4 0 14 -3 14 -15 4 -12 -10 -15 -9 -15 8 0 11 6 23 13
25 12 5 -19 11 -38 7 -5 -1 -5 4 1 10 15 16 50 -2 59 -30 8 -26 20 -25 52 4
15 14 30 23 35 20 4 -3 8 5 8 18 0 19 -2 20 -11 8 -9 -13 -10 -12 -5 3 3 11 0
17 -10 17 -8 0 -13 -3 -10 -8 2 -4 -2 -18 -10 -32 -7 -14 -13 -21 -14 -16 0 5
-7 2 -16 -5 -15 -12 -16 -9 -9 41 4 30 12 58 17 61 6 4 2 11 -8 18 -25 14 -11
14 21 -1 29 -13 33 -26 8 -24 -13 1 -17 -8 -18 -36 -1 -21 2 -38 7 -38 4 0 7
3 6 8 -5 18 14 50 32 55 12 3 20 14 20 26 0 12 5 21 10 21 6 0 0 10 -11 21
-24 24 -99 39 -99 19z m87 -42 c-6 -4 -16 -8 -22 -8 -5 0 -3 4 5 10 12 8 12
10 -3 16 -9 3 -15 10 -12 15 3 4 14 1 25 -8 15 -13 16 -19 7 -25z m-92 -8 c3
-5 -1 -10 -10 -10 -9 0 -13 5 -10 10 3 6 8 10 10 10 2 0 7 -4 10 -10z m-15
-25 c0 -1 -9 -5 -20 -8 -12 -3 -20 0 -20 8 0 8 8 11 20 8 11 -3 20 -7 20 -8z
m21 -33 c-6 -10 -8 -22 -4 -25 3 -4 -6 -1 -20 6 -22 10 -24 13 -9 19 9 4 13 7
9 7 -4 1 -2 7 5 15 18 19 32 3 19 -22z m-71 22 c0 -3 -7 -12 -15 -20 -13 -14
-15 -13 -15 5 0 12 6 21 15 21 8 0 15 -3 15 -6z m10 -34 c0 -5 -2 -10 -4 -10
-3 0 -8 5 -11 10 -3 6 -1 10 4 10 6 0 11 -4 11 -10z m120 -104 c0 -2 -7 -6
-15 -10 -8 -3 -15 -1 -15 4 0 6 7 10 15 10 8 0 15 -2 15 -4z"/>
<path d="M37648 25656 c-22 -17 -22 -22 -1 -30 10 -4 14 -4 11 0 -4 3 3 15 15
25 26 22 3 27 -25 5z"/>
<path d="M37683 25636 c3 -7 1 -18 -5 -24 -8 -8 -3 -10 18 -8 15 2 30 8 32 15
2 6 -3 9 -12 5 -11 -4 -16 -1 -16 10 0 9 -5 16 -11 16 -6 0 -9 -6 -6 -14z"/>
<path d="M38130 25626 c0 -2 7 -7 16 -10 8 -3 12 -2 9 4 -6 10 -25 14 -25 6z"/>
<path d="M37706 25585 c-25 -19 -12 -33 14 -17 11 7 20 9 19 5 -3 -20 2 -24
16 -13 12 10 13 16 4 26 -14 18 -29 17 -53 -1z"/>
<path d="M38123 25581 c-1 -9 8 -21 20 -27 14 -6 21 -16 19 -28 -3 -15 1 -18
21 -14 20 4 23 1 19 -19 -3 -18 -1 -22 12 -17 9 3 16 2 16 -2 -1 -15 -26 -44
-38 -44 -6 0 -15 -6 -19 -13 -4 -8 -16 -16 -25 -20 -19 -7 -25 -27 -8 -27 6 0
23 11 37 24 15 14 30 23 35 20 4 -3 8 4 8 16 0 15 5 20 18 18 9 -2 16 -9 15
-16 -2 -6 9 -20 22 -30 27 -22 33 -37 11 -29 -7 3 -20 0 -27 -6 -11 -10 -11
-9 -1 4 10 13 9 19 -2 28 -18 15 -52 6 -60 -14 -7 -18 10 -20 18 -2 3 6 3 2 0
-10 -6 -24 10 -32 20 -10 3 6 3 2 0 -10 -5 -23 11 -33 18 -12 2 5 23 13 46 16
23 3 45 10 48 15 3 4 0 7 -8 6 -7 -2 -12 2 -11 9 2 7 -13 25 -32 40 -19 15
-35 34 -35 41 0 7 4 11 9 7 5 -3 12 -1 16 5 3 5 -1 10 -9 10 -8 0 -18 -5 -21
-10 -5 -8 -11 -7 -21 1 -7 6 -11 15 -9 20 3 4 -10 20 -30 36 -19 15 -35 34
-35 41 0 7 4 11 9 7 5 -3 12 -1 15 4 3 5 -9 9 -27 9 -24 0 -33 -5 -34 -17z"/>
<path d="M38205 25550 c10 -11 20 -18 23 -16 5 6 -23 36 -34 36 -4 0 1 -9 11
-20z"/>
<path d="M37755 25549 c-4 -6 -13 -8 -21 -5 -8 3 -11 0 -8 -9 3 -7 12 -16 20
-19 9 -3 12 -1 9 5 -4 6 2 8 18 4 14 -4 28 -2 31 4 4 6 0 11 -9 11 -9 0 -13 5
-10 10 3 6 -1 10 -9 10 -8 0 -18 -5 -21 -11z"/>
<path d="M38130 25546 c0 -2 7 -7 16 -10 8 -3 12 -2 9 4 -6 10 -25 14 -25 6z"/>
<path d="M38240 25510 c0 -5 5 -10 11 -10 5 0 7 5 4 10 -3 6 -8 10 -11 10 -2
0 -4 -4 -4 -10z"/>
<path d="M37904 25468 c-5 -16 -30 -24 -57 -19 -5 1 -6 -3 -2 -9 3 -5 1 -10
-4 -10 -16 0 -13 -20 3 -26 8 -3 27 6 43 20 30 28 49 21 38 -14 -6 -19 -8 -19
-18 -6 -11 14 -13 13 -23 -9 -11 -24 -11 -24 20 -21 18 2 31 9 31 17 0 8 5 14
10 14 6 0 9 -3 8 -7 -2 -5 4 -8 13 -8 8 0 12 -4 9 -10 -3 -5 1 -10 10 -10 9 0
14 -4 10 -9 -3 -6 4 -15 15 -21 11 -6 20 -17 20 -25 0 -8 6 -14 13 -12 6 1 11
-4 10 -10 -2 -7 5 -13 14 -13 9 0 13 -3 10 -6 -3 -4 7 -19 23 -34 17 -16 30
-33 30 -39 0 -6 6 -11 14 -11 7 0 16 -9 19 -20 3 -11 11 -19 19 -18 7 2 12 -3
11 -9 -2 -7 2 -13 7 -13 6 0 10 -4 10 -10 0 -5 -9 -10 -19 -10 -11 0 -23 -5
-26 -11 -4 -6 -13 -8 -21 -5 -12 4 -12 2 -4 -14 14 -26 25 -25 58 5 29 27 48
20 37 -15 -6 -19 -8 -19 -18 -6 -11 14 -13 13 -23 -9 -11 -24 -11 -24 20 -21
20 2 31 9 31 20 0 9 5 15 10 13 6 -1 9 -5 8 -9 -2 -5 4 -8 13 -8 8 0 12 -4 9
-10 -3 -5 1 -10 10 -10 9 0 14 -4 10 -9 -3 -6 4 -15 15 -21 11 -6 20 -17 20
-25 0 -8 6 -14 13 -12 6 1 11 -4 10 -10 -2 -7 5 -13 14 -13 9 0 13 -3 10 -6
-3 -4 7 -19 23 -34 17 -16 30 -33 30 -39 0 -6 6 -11 14 -11 7 0 16 -9 19 -20
3 -11 10 -19 15 -18 6 2 10 -1 10 -5 1 -5 11 -17 23 -28 27 -23 29 -87 4 -106
-23 -16 -1 -27 27 -13 22 11 22 10 4 -4 -29 -23 -11 -32 21 -11 16 11 23 20
15 23 -20 6 -14 22 9 22 11 0 18 -4 14 -9 -3 -6 4 -15 15 -21 11 -6 20 -17 20
-25 0 -8 6 -14 13 -12 6 1 11 -4 10 -10 -2 -7 5 -13 14 -13 9 0 13 -3 10 -6
-3 -4 7 -19 23 -34 17 -16 30 -34 30 -42 0 -10 2 -10 9 2 6 8 7 18 4 24 -4 5
0 6 8 1 8 -4 -2 8 -20 28 -19 21 -41 37 -49 37 -8 0 -12 6 -8 15 4 10 -1 15
-15 15 -13 0 -19 6 -17 18 2 10 -2 16 -10 14 -8 -1 -11 2 -8 7 3 5 -1 15 -10
22 -14 12 -14 14 5 21 16 5 27 2 44 -15 l22 -22 3 24 c2 13 -2 27 -9 32 -8 4
-11 11 -7 14 3 4 16 -3 27 -14 l21 -21 22 20 c21 19 33 24 52 21 5 -1 4 4 -2
12 -7 8 -9 16 -6 19 2 3 -9 17 -25 31 -16 13 -27 28 -24 31 6 6 -13 10 -30 7
-5 -1 -7 3 -5 9 2 7 7 11 11 11 4 -1 13 -1 21 -1 8 0 16 -10 18 -22 2 -17 10
-23 29 -23 21 0 25 -3 21 -22 -3 -18 -1 -22 12 -17 9 3 16 2 16 -2 -1 -15 -24
-40 -42 -47 -10 -3 -18 -10 -18 -16 0 -5 -9 -11 -20 -14 -11 -3 -20 -10 -20
-16 0 -18 19 -13 47 13 15 14 30 23 35 20 4 -3 8 4 8 16 0 15 5 20 18 18 9 -2
16 -9 15 -16 -2 -6 9 -20 22 -30 27 -22 33 -37 11 -29 -7 3 -20 0 -27 -6 -11
-10 -11 -9 -1 4 10 13 9 19 -2 28 -18 15 -52 6 -60 -14 -7 -18 10 -20 18 -2 3
6 3 2 0 -10 -6 -24 10 -32 20 -10 3 6 3 2 0 -10 -3 -13 -1 -23 5 -23 6 0 11 4
11 9 0 5 11 12 24 15 13 3 32 9 41 12 12 5 16 2 13 -12 -2 -11 3 -19 12 -19 8
-1 14 -6 13 -12 -2 -7 9 -21 22 -31 27 -22 33 -37 11 -29 -7 3 -19 0 -25 -6
-8 -8 -11 -8 -11 1 0 7 5 12 11 12 8 0 8 5 -1 15 -16 19 -35 19 -55 -1 -12
-12 -13 -19 -4 -30 13 -16 33 -19 24 -4 -3 6 -1 10 5 10 7 0 9 -8 5 -20 -3
-11 -2 -20 3 -20 6 0 12 5 14 11 2 5 23 13 46 16 23 3 45 10 48 15 3 4 0 7 -7
6 -7 -2 -14 4 -14 12 0 8 -7 14 -14 12 -7 -1 -10 2 -6 7 3 6 -10 21 -30 33
-19 13 -33 29 -30 35 2 7 -1 12 -8 10 -7 -1 -11 3 -10 10 2 7 -13 25 -32 40
-19 15 -35 34 -35 41 0 7 4 11 9 7 5 -3 12 -1 16 5 3 5 -1 10 -9 10 -8 0 -18
-5 -21 -10 -5 -8 -11 -7 -21 1 -7 6 -12 15 -9 19 3 5 -8 19 -24 33 -17 14 -28
27 -25 30 3 3 -4 8 -15 12 -12 3 -19 10 -16 15 3 5 13 6 22 3 15 -6 16 -5 3 9
-8 9 -17 13 -20 9 -9 -13 -35 -6 -35 9 -1 8 -7 14 -14 12 -7 -1 -10 2 -6 8 3
5 -1 13 -9 16 -9 3 -16 12 -16 20 0 8 -10 14 -25 14 -14 0 -25 -5 -25 -11 0
-5 4 -8 9 -4 5 3 12 1 16 -5 4 -6 -6 -10 -24 -10 -36 0 -63 -9 -56 -20 3 -5
-8 -11 -25 -15 -16 -4 -33 -12 -37 -19 -5 -7 -16 -15 -25 -19 -28 -10 -21 -24
12 -23 22 1 30 6 30 20 0 13 5 17 20 13 13 -3 20 0 20 9 0 8 6 11 15 8 9 -4
15 0 15 10 0 9 5 16 10 16 12 0 12 -17 1 -44 -5 -13 -10 -16 -15 -8 -8 13 -44
-3 -59 -25 -4 -7 -15 -13 -22 -13 -18 0 -20 -16 -3 -26 6 -4 8 -3 5 3 -4 6 4
11 19 11 24 0 24 -1 7 -21 -18 -19 -17 -19 7 -12 23 7 24 7 10 -10 -14 -16
-13 -17 8 -11 13 5 22 3 22 -3 0 -6 -5 -11 -11 -11 -6 0 -9 -7 -6 -15 9 -21
-9 -27 -24 -8 -12 14 -12 16 1 8 10 -5 8 -1 -4 13 -10 12 -23 19 -29 15 -6 -3
-7 -1 -3 5 3 6 -3 16 -14 22 -11 6 -18 15 -15 21 4 5 -5 13 -19 19 -14 5 -26
12 -26 15 0 4 6 3 13 -1 6 -4 -4 9 -22 29 -19 21 -41 37 -49 37 -8 0 -12 6 -8
15 4 10 -1 15 -15 15 -13 0 -19 6 -17 18 2 11 -2 16 -12 14 -8 -2 -12 0 -7 4
9 9 -22 44 -40 44 -9 0 -12 9 -8 33 4 25 3 28 -5 15 -6 -10 -15 -18 -20 -18
-17 0 -11 39 8 49 13 9 9 10 -21 7 -20 -3 -35 -1 -32 4 3 5 -4 14 -15 20 -11
6 -18 15 -15 21 4 5 -5 13 -19 19 -14 5 -26 12 -26 15 0 4 6 3 13 -1 6 -4 -4
9 -22 29 -19 21 -41 37 -49 37 -8 0 -12 6 -8 15 4 10 -1 15 -15 15 -13 0 -19
6 -17 18 2 11 -2 16 -12 14 -8 -2 -12 0 -7 4 9 9 -22 44 -40 44 -9 0 -12 9 -8
33 4 25 3 28 -5 15 -6 -10 -15 -18 -20 -18 -17 0 -11 39 8 49 14 8 11 10 -16
8 -21 -1 -34 -8 -38 -19z m784 -517 c25 -21 29 -36 8 -28 -7 3 -19 0 -25 -6
-8 -8 -11 -8 -11 1 0 7 5 12 12 12 9 0 9 3 0 12 -10 10 -15 10 -22 -2 -11 -17
-13 -9 -4 14 8 20 14 20 42 -3z m-43 -51 c-4 -11 -2 -20 4 -20 6 0 11 5 11 10
0 6 4 10 10 10 6 0 6 -9 0 -25 -7 -19 -6 -25 4 -25 7 0 13 7 14 15 1 8 3 22 4
30 1 10 12 15 31 15 32 0 32 -10 1 -14 -12 -2 -19 -11 -19 -27 0 -14 5 -23 13
-21 6 1 12 -3 12 -9 0 -6 -9 -8 -22 -4 -22 6 -22 6 -4 -9 11 -9 17 -16 14 -16
-4 0 -13 -3 -22 -6 -12 -4 -16 0 -16 15 0 12 -6 21 -15 21 -8 0 -15 7 -15 16
0 8 -5 12 -10 9 -6 -4 -10 -3 -9 2 4 21 -3 24 -25 10 -22 -15 -25 -15 -37 -1
-11 13 -10 15 2 13 23 -5 70 11 64 21 -3 6 -1 10 5 10 7 0 9 -8 5 -20z m-25
-44 c0 -2 -7 -9 -15 -16 -13 -11 -14 -10 -9 4 5 14 24 23 24 12z m20 -25 c0
-5 -7 -11 -15 -15 -15 -5 -20 5 -8 17 9 10 23 9 23 -2z m17 -15 c-3 -8 1 -17
9 -20 21 -8 17 -26 -6 -26 -11 0 -20 6 -20 14 0 18 10 46 17 46 3 0 3 -6 0
-14z m78 -16 c-4 -11 -2 -20 4 -20 6 0 11 5 11 12 0 6 3 8 7 5 3 -4 12 -2 19
4 8 7 14 6 20 -2 5 -8 3 -9 -6 -4 -10 6 -12 4 -7 -10 6 -14 3 -16 -13 -12 -18
4 -19 3 -9 -9 10 -12 8 -14 -12 -11 -13 2 -24 9 -24 15 0 6 -3 13 -7 17 -4 4
-1 13 5 21 17 19 19 17 12 -6z m-118 -12 c-2 -7 3 -18 12 -25 9 -6 14 -13 11
-15 -65 -49 -80 -57 -85 -48 -4 6 -4 18 -1 27 5 12 9 13 21 3 12 -10 15 -10
15 3 0 17 20 67 27 67 3 0 3 -6 0 -12z"/>
<path d="M38310 25435 c13 -14 27 -25 32 -25 5 0 -2 11 -16 25 -14 14 -28 25
-32 25 -4 0 3 -11 16 -25z"/>
<path d="M38035 25380 c3 -5 8 -10 11 -10 2 0 4 5 4 10 0 6 -5 10 -11 10 -5 0
-7 -4 -4 -10z"/>
<path d="M38103 25369 c-18 -18 -16 -29 4 -29 15 0 14 -2 -3 -15 -18 -14 -17
-15 11 -9 29 6 29 6 10 -10 -20 -17 -20 -17 5 -10 23 6 24 6 10 -11 -14 -17
-13 -17 10 -10 23 7 24 7 10 -10 -14 -17 -13 -17 10 -10 14 4 29 14 33 21 4 8
15 14 22 14 8 0 15 6 15 14 0 18 -25 38 -35 28 -5 -4 -5 -2 -2 4 12 21 -21 38
-49 25 -32 -14 -32 -14 -36 5 -2 12 -5 13 -15 3z m77 -23 c0 -2 -7 -6 -15 -10
-8 -3 -15 -1 -15 4 0 6 7 10 15 10 8 0 15 -2 15 -4z m10 -20 c0 -3 -4 -8 -10
-11 -5 -3 -10 -1 -10 4 0 6 5 11 10 11 6 0 10 -2 10 -4z m20 -20 c0 -2 -7 -9
-15 -16 -13 -11 -14 -10 -9 4 5 14 24 23 24 12z"/>
<path d="M37916 25355 c-25 -19 -14 -30 16 -15 22 11 22 10 4 -4 -28 -22 -12
-32 19 -12 22 15 24 19 11 31 -18 18 -26 18 -50 0z"/>
<path d="M48585 25271 c-461 -225 -954 -544 -1414 -916 -238 -191 -414 -348
-458 -409 -184 -248 -524 -792 -719 -1151 -59 -107 -109 -195 -113 -195 -4 0
-32 28 -62 62 -30 35 -79 90 -109 123 -30 33 -80 89 -110 125 -30 35 -86 96
-125 136 l-70 73 -279 25 c-154 14 -282 24 -284 22 -1 -2 41 -53 95 -113 54
-59 134 -149 178 -198 44 -50 82 -92 85 -95 3 -3 41 -45 85 -95 44 -49 102
-115 130 -145 27 -30 82 -91 120 -134 145 -164 241 -272 283 -314 23 -24 42
-46 42 -48 0 -2 8 -12 18 -22 9 -10 37 -40 60 -66 24 -26 45 -46 46 -44 1 2 6
12 12 23 5 11 37 74 72 140 59 114 65 121 111 143 95 44 182 151 341 422 134
228 261 432 460 735 307 469 344 538 347 645 1 59 5 68 45 120 153 197 469
529 668 704 211 185 428 345 630 466 167 100 151 96 -85 -19z"/>
<path d="M38330 25339 c0 -5 4 -8 9 -4 5 3 12 1 16 -5 4 -6 -6 -10 -24 -10
-36 0 -63 -9 -56 -20 3 -5 -8 -11 -25 -15 -16 -4 -33 -12 -37 -19 -5 -7 -16
-15 -25 -19 -28 -10 -21 -24 12 -23 22 1 30 6 30 20 0 13 5 17 20 13 13 -3 20
0 20 9 0 8 6 11 15 8 9 -4 15 0 15 10 0 9 5 16 10 16 12 0 12 -17 1 -44 -5
-13 -10 -16 -15 -8 -8 13 -44 -3 -59 -25 -4 -7 -15 -13 -22 -13 -18 0 -20 -16
-3 -26 6 -4 8 -3 5 3 -4 6 4 11 19 11 24 0 24 -1 7 -21 -17 -19 -17 -20 0 -14
18 7 57 -23 57 -43 0 -5 8 -10 17 -10 15 0 14 -2 -3 -15 -18 -14 -17 -15 11
-9 29 6 29 6 10 -10 -20 -17 -20 -17 3 -11 22 6 32 -10 10 -17 -9 -3 -9 -6 0
-12 7 -4 12 -2 12 4 0 8 6 8 20 0 17 -9 20 -8 20 14 0 13 -6 26 -12 29 -7 2
-10 8 -6 11 3 4 16 -2 27 -13 l21 -21 22 20 c21 19 33 24 52 21 5 -1 4 5 -4
13 -7 9 -9 16 -4 16 4 0 -3 11 -16 25 -13 14 -29 25 -36 25 -16 0 -47 -30 -39
-38 3 -4 11 0 16 8 8 11 9 10 4 -7 -4 -14 -2 -23 4 -23 6 0 11 5 11 12 0 6 3
8 7 5 3 -4 11 -3 17 3 8 6 12 3 12 -11 0 -15 -5 -19 -19 -15 -15 4 -16 2 -6
-10 10 -12 8 -14 -12 -11 -13 2 -24 9 -24 15 0 25 -23 36 -50 24 -33 -15 -35
-15 -35 4 0 14 -3 14 -15 4 -12 -10 -15 -9 -15 8 0 11 6 23 13 25 7 3 5 6 -5
6 -10 1 -18 6 -18 11 0 18 38 -8 45 -30 8 -26 20 -25 52 4 15 14 30 23 35 20
4 -3 8 5 8 18 0 19 -2 20 -11 8 -9 -13 -10 -12 -5 3 3 11 0 17 -10 17 -8 0
-13 -3 -10 -8 2 -4 -2 -18 -10 -32 -7 -14 -13 -21 -14 -16 0 5 -7 2 -17 -5
-15 -13 -15 -10 -9 36 5 28 12 55 17 62 7 7 6 14 -2 18 -6 4 -15 1 -20 -6 -5
-8 -9 -9 -9 -4 0 6 4 16 9 24 7 11 13 10 35 -5 30 -22 33 -32 9 -30 -13 1 -17
-8 -18 -36 -1 -21 2 -38 7 -38 4 0 7 3 6 8 -5 18 14 50 32 55 12 3 20 14 20
26 0 12 5 21 11 21 11 0 -2 15 -36 40 -16 11 -15 9 3 -12 20 -22 21 -26 7 -32
-9 -3 -13 -2 -10 4 3 6 -1 13 -9 16 -9 3 -16 12 -16 20 0 8 -10 14 -25 14 -14
0 -25 -5 -25 -11z m10 -86 c0 -11 -20 -40 -20 -29 0 4 -11 1 -24 -7 -22 -15
-25 -15 -37 -1 -11 13 -10 15 2 13 23 -5 70 11 64 21 -3 6 -1 10 4 10 6 0 11
-3 11 -7z m50 -137 c0 -2 -7 -6 -15 -10 -8 -3 -15 -1 -15 4 0 6 7 10 15 10 8
0 15 -2 15 -4z"/>
<path d="M37956 25309 c-19 -23 0 -26 24 -4 15 14 17 13 15 -6 -1 -11 -8 -25
-16 -30 -9 -6 -3 -8 21 -5 19 2 36 9 38 16 3 9 -1 11 -11 7 -11 -4 -17 1 -19
15 -4 27 -31 31 -52 7z"/>
<path d="M38440 25286 c0 -2 7 -7 16 -10 8 -3 12 -2 9 4 -6 10 -25 14 -25 6z"/>
<path d="M38016 25245 c-25 -19 -14 -30 16 -15 22 11 22 10 4 -4 -28 -22 -12
-32 19 -12 22 15 24 19 11 31 -18 18 -26 18 -50 0z"/>
<path d="M38433 25241 c-1 -9 8 -21 20 -27 14 -6 21 -16 19 -28 -3 -15 1 -18
21 -14 20 4 23 1 19 -19 -3 -18 -1 -22 12 -17 9 3 16 2 16 -2 -1 -15 -26 -44
-38 -44 -6 0 -15 -6 -19 -13 -4 -8 -16 -16 -25 -20 -19 -7 -25 -27 -8 -27 6 0
23 11 37 24 15 14 30 23 35 20 4 -3 8 4 8 16 0 15 5 20 18 18 9 -2 16 -9 15
-16 -2 -6 9 -20 22 -30 27 -22 33 -37 11 -29 -7 3 -20 0 -27 -6 -11 -10 -11
-9 -1 4 10 13 9 19 -2 28 -18 15 -52 6 -60 -14 -7 -18 10 -20 18 -2 3 6 3 2 0
-10 -6 -24 10 -32 20 -10 3 6 3 2 0 -10 -5 -23 11 -33 18 -12 2 5 23 13 46 16
23 3 45 10 48 15 3 4 0 7 -8 6 -7 -2 -12 2 -11 9 2 7 -13 25 -32 40 -19 15
-35 34 -35 41 0 7 4 11 9 7 5 -3 12 -1 16 5 3 5 -1 10 -9 10 -8 0 -18 -5 -21
-10 -5 -8 -11 -7 -21 1 -7 6 -11 15 -9 20 3 4 -10 20 -30 36 -19 15 -35 34
-35 41 0 7 4 11 9 7 5 -3 12 -1 15 4 3 5 -9 9 -27 9 -24 0 -33 -5 -34 -17z"/>
<path d="M38515 25210 c10 -11 20 -18 23 -16 5 6 -23 36 -34 36 -4 0 1 -9 11
-20z"/>
<path d="M38058 25206 c-22 -16 -22 -22 -2 -30 9 -3 12 -2 9 5 -4 6 2 8 18 4
14 -4 28 -2 31 4 4 6 0 11 -9 11 -9 0 -13 5 -10 10 9 14 -17 12 -37 -4z"/>
<path d="M38440 25206 c0 -2 7 -7 16 -10 8 -3 12 -2 9 4 -6 10 -25 14 -25 6z"/>
<path d="M38115 25172 c-27 -5 -39 -18 -30 -32 5 -8 11 -8 21 1 8 6 18 9 22 5
4 -4 -2 -14 -12 -22 -15 -10 -16 -14 -5 -14 8 0 21 6 28 13 10 8 12 8 7 0 -10
-18 10 -25 24 -9 9 12 7 17 -10 26 -11 6 -18 15 -15 20 7 12 -6 17 -30 12z"/>
<path d="M38550 25170 c0 -5 5 -10 11 -10 5 0 7 5 4 10 -3 6 -8 10 -11 10 -2
0 -4 -4 -4 -10z"/>
<path d="M38620 25095 c13 -14 27 -25 32 -25 5 0 -2 11 -16 25 -14 14 -28 25
-32 25 -4 0 3 -11 16 -25z"/>
<path d="M38413 25029 c-18 -18 -16 -29 4 -29 15 0 14 -2 -3 -15 -18 -14 -17
-15 11 -9 29 6 29 6 10 -10 -20 -17 -20 -17 5 -10 23 6 24 6 10 -11 -14 -17
-13 -17 10 -10 23 7 24 7 10 -10 -14 -17 -13 -17 10 -10 14 4 29 14 33 21 4 8
15 14 22 14 8 0 15 6 15 14 0 18 -25 38 -35 28 -5 -4 -5 -2 -2 4 12 21 -21 38
-49 25 -32 -14 -32 -14 -36 5 -2 12 -5 13 -15 3z m77 -23 c0 -2 -7 -6 -15 -10
-8 -3 -15 -1 -15 4 0 6 7 10 15 10 8 0 15 -2 15 -4z m10 -20 c0 -3 -4 -8 -10
-11 -5 -3 -10 -1 -10 4 0 6 5 11 10 11 6 0 10 -2 10 -4z m20 -20 c0 -2 -7 -9
-15 -16 -13 -11 -14 -10 -9 4 5 14 24 23 24 12z"/>
<path d="M38226 25015 c-25 -19 -14 -30 16 -15 22 11 22 10 4 -4 -28 -22 -12
-32 19 -12 22 15 24 19 11 31 -18 18 -26 18 -50 0z"/>
<path d="M38719 24987 c14 -15 29 -27 33 -27 10 0 -5 16 -37 40 -15 10 -14 7
4 -13z"/>
<path d="M38266 24969 c-19 -23 0 -26 24 -4 15 14 17 13 15 -6 -1 -11 -8 -25
-16 -30 -9 -6 -3 -8 21 -5 19 2 36 9 38 16 3 9 -1 11 -11 7 -11 -4 -17 1 -19
15 -4 27 -31 31 -52 7z"/>
<path d="M38326 24905 c-25 -19 -14 -30 16 -15 22 11 22 10 4 -4 -28 -22 -12
-32 19 -12 22 15 24 19 11 31 -18 18 -26 18 -50 0z"/>
<path d="M38810 24887 c0 -7 9 -18 20 -25 12 -7 20 -8 20 -2 0 5 -4 10 -10 10
-5 0 -10 7 -10 15 0 8 -4 15 -10 15 -5 0 -10 -6 -10 -13z"/>
<path d="M38368 24866 c-22 -16 -22 -22 -2 -30 9 -3 12 -2 9 5 -4 6 2 8 18 4
14 -4 28 -2 31 4 4 6 0 11 -9 11 -9 0 -13 5 -10 10 9 14 -17 12 -37 -4z"/>
<path d="M38425 24832 c-27 -5 -39 -18 -30 -32 5 -8 11 -8 21 1 8 6 18 9 22 5
4 -4 -2 -14 -12 -22 -15 -10 -16 -14 -5 -14 8 0 21 6 28 13 10 8 12 8 7 0 -10
-18 10 -25 24 -9 9 12 7 17 -10 26 -11 6 -18 15 -15 20 7 12 -6 17 -30 12z"/>
<path d="M38860 24830 c0 -5 5 -10 11 -10 5 0 7 5 4 10 -3 6 -8 10 -11 10 -2
0 -4 -4 -4 -10z"/>
<path d="M38930 24755 c13 -14 27 -25 32 -25 5 0 -2 11 -16 25 -14 14 -28 25
-32 25 -4 0 3 -11 16 -25z"/>
<path d="M38475 24759 c-4 -6 -13 -8 -21 -5 -8 3 -11 0 -7 -10 3 -8 13 -12 22
-10 9 3 22 1 30 -3 12 -8 12 -12 2 -25 -11 -13 -11 -16 3 -16 9 0 17 3 17 8 7
38 5 52 -8 52 -8 0 -11 5 -8 10 3 6 -1 10 -9 10 -8 0 -18 -5 -21 -11z"/>
<path d="M38470 24719 c0 -5 5 -7 10 -4 6 3 10 8 10 11 0 2 -4 4 -10 4 -5 0
-10 -5 -10 -11z"/>
<path d="M38655 24700 c3 -5 8 -10 11 -10 2 0 4 5 4 10 0 6 -5 10 -11 10 -5 0
-7 -4 -4 -10z"/>
<path d="M38723 24689 c-18 -18 -16 -29 4 -29 15 0 14 -2 -3 -15 -18 -14 -17
-15 11 -9 29 6 29 6 10 -10 -20 -17 -20 -17 5 -10 23 6 24 6 10 -11 -14 -17
-13 -17 10 -10 23 7 24 7 10 -10 -14 -17 -13 -17 10 -10 14 4 29 14 33 21 4 8
15 14 22 14 8 0 15 6 15 14 0 18 -25 38 -35 28 -5 -4 -5 -2 -2 4 12 21 -21 38
-49 25 -32 -14 -32 -14 -36 5 -2 12 -5 13 -15 3z m77 -23 c0 -2 -7 -6 -15 -10
-8 -3 -15 -1 -15 4 0 6 7 10 15 10 8 0 15 -2 15 -4z m10 -20 c0 -3 -4 -8 -10
-11 -5 -3 -10 -1 -10 4 0 6 5 11 10 11 6 0 10 -2 10 -4z m20 -20 c0 -2 -7 -9
-15 -16 -13 -11 -14 -10 -9 4 5 14 24 23 24 12z"/>
<path d="M38990 24690 c0 -5 5 -10 10 -10 6 0 10 5 10 10 0 6 -4 10 -10 10 -5
0 -10 -4 -10 -10z"/>
<path d="M39029 24647 c14 -15 29 -27 33 -27 10 0 -5 16 -37 40 -15 10 -14 7
4 -13z"/>
<path d="M38576 24629 c-19 -23 0 -26 24 -4 15 14 17 13 15 -6 -1 -11 -8 -25
-16 -30 -9 -6 -3 -8 21 -5 19 2 36 9 38 16 3 9 -1 11 -11 7 -11 -4 -17 1 -19
15 -4 27 -31 31 -52 7z"/>
<path d="M38902 24633 c-6 -2 -10 -8 -7 -13 3 -5 -9 -11 -26 -15 -17 -4 -33
-13 -35 -20 -3 -7 -14 -15 -25 -18 -10 -3 -19 -11 -18 -19 0 -8 2 -9 5 -2 3 7
14 10 25 7 17 -5 18 -7 3 -17 -14 -11 -14 -13 2 -27 10 -7 15 -9 11 -3 -4 7 3
12 19 12 24 0 24 -1 7 -21 -18 -19 -17 -19 7 -12 23 7 24 7 10 -10 -14 -17
-13 -17 10 -10 14 4 29 14 33 21 4 8 15 14 22 14 24 0 17 24 -15 55 -26 25
-33 27 -55 17 -33 -15 -35 -15 -35 3 0 8 6 12 14 9 8 -3 27 6 42 20 15 14 31
23 36 20 4 -3 8 0 8 5 0 11 -16 13 -38 4z m27 -86 c-2 -2 -11 -8 -20 -15 -13
-10 -19 -10 -28 1 -9 11 -5 14 20 15 17 0 29 0 28 -1z m1 -31 c0 -2 -7 -9 -15
-16 -13 -11 -14 -10 -9 4 5 14 24 23 24 12z"/>
<path d="M38636 24565 c-25 -19 -14 -30 16 -15 22 11 22 10 4 -4 -28 -22 -12
-32 19 -12 22 15 24 19 11 31 -18 18 -26 18 -50 0z"/>
<path d="M39050 24549 c0 -6 4 -8 9 -4 5 3 12 1 16 -5 4 -6 -6 -10 -24 -10
-36 0 -63 -9 -56 -20 3 -5 -8 -11 -25 -15 -16 -4 -33 -12 -37 -19 -5 -7 -16
-15 -25 -19 -28 -10 -21 -28 7 -21 15 4 25 2 25 -5 0 -6 -4 -11 -10 -11 -5 0
-10 -4 -10 -10 0 -5 8 -7 18 -3 14 5 13 3 -3 -10 -20 -16 -40 -13 -30 4 4 5
-5 13 -19 19 -14 5 -26 12 -26 15 0 4 6 3 13 -1 6 -4 4 2 -7 14 -10 12 -23 19
-28 16 -4 -3 -7 0 -6 7 2 7 -7 18 -20 24 -12 5 -20 16 -17 22 2 7 -2 13 -10
13 -18 0 -15 -35 5 -53 10 -10 11 -9 5 3 -8 13 -6 13 8 1 9 -7 15 -16 12 -20
-2 -4 5 -14 16 -21 10 -8 19 -20 19 -27 0 -7 7 -13 15 -13 8 0 15 -7 15 -16 0
-9 5 -12 13 -8 8 5 7 2 -2 -9 -13 -17 -26 -15 -26 4 0 5 -3 9 -7 9 -5 0 -13 0
-19 0 -5 0 3 -11 18 -24 15 -14 30 -20 31 -15 6 16 42 10 42 -7 0 -11 -5 -14
-16 -10 -14 5 -15 4 -4 -9 10 -12 16 -13 26 -4 11 9 16 6 22 -11 4 -12 12 -22
17 -23 6 -1 9 -5 8 -9 -2 -5 4 -8 13 -8 8 0 12 -4 9 -10 -3 -5 -1 -10 4 -10 6
0 20 -9 31 -20 22 -22 44 -27 37 -7 -2 6 -11 11 -18 9 -8 -2 -11 0 -6 4 9 9
-22 44 -40 44 -9 0 -12 9 -8 33 4 25 3 28 -5 15 -6 -10 -15 -18 -20 -18 -17 0
-11 38 8 50 14 10 13 10 -9 6 -33 -7 -61 19 -30 27 21 5 71 -32 71 -53 0 -5 8
-10 17 -10 15 0 14 -2 -3 -15 -18 -14 -17 -15 11 -9 29 6 29 6 10 -10 -20 -17
-20 -17 1 -11 14 4 24 0 27 -9 4 -11 1 -13 -11 -9 -15 6 -15 4 -4 -10 14 -17
42 -12 55 10 4 7 13 13 20 13 7 0 25 11 41 25 16 13 33 22 37 19 5 -3 9 0 9 5
0 6 -4 11 -10 11 -5 0 -9 3 -7 8 1 4 -2 7 -8 7 -5 0 -9 -6 -8 -13 1 -9 -6 -12
-19 -9 -16 5 -17 3 -7 -9 10 -12 8 -14 -12 -11 -13 2 -24 9 -24 15 0 25 -23
36 -50 24 -33 -15 -35 -15 -35 4 0 14 -3 14 -15 4 -12 -10 -15 -9 -15 8 0 11
6 23 13 25 11 5 -17 11 -35 8 -4 0 -5 6 -2 14 5 12 9 12 30 -1 13 -9 26 -24
29 -35 8 -25 20 -24 52 5 15 14 30 23 35 20 4 -3 8 5 8 18 0 19 -2 20 -11 8
-9 -13 -10 -12 -5 3 3 11 0 17 -10 17 -8 0 -13 -3 -10 -8 2 -4 -2 -18 -10 -32
-7 -14 -13 -21 -14 -16 0 5 -7 3 -15 -4 -13 -10 -15 -9 -15 11 0 36 11 69 22
69 6 0 8 -13 5 -30 -4 -16 -3 -30 2 -30 4 0 8 7 9 15 1 8 3 22 4 30 1 8 10 15
20 15 26 0 33 -4 31 -15 -2 -6 7 -15 20 -20 13 -6 21 -17 19 -28 -3 -15 8 -22
31 -18 4 0 7 -8 7 -19 0 -13 5 -18 15 -14 17 7 20 -7 5 -22 -7 -7 -4 -10 12
-10 13 1 22 -4 21 -11 -2 -6 9 -21 22 -31 27 -22 33 -37 11 -29 -7 3 -20 0
-27 -6 -11 -10 -11 -9 -1 4 10 13 9 19 -2 28 -18 15 -52 6 -60 -14 -7 -18 10
-20 18 -2 3 6 3 2 0 -10 -6 -24 10 -32 20 -10 3 6 3 2 0 -10 -5 -23 11 -33 18
-12 2 5 23 13 46 16 23 3 45 10 48 15 3 4 0 7 -7 6 -7 -2 -13 4 -14 12 0 8
-19 28 -42 45 -23 16 -42 34 -42 39 -1 5 -9 15 -18 23 -12 10 -13 12 -3 8 8
-3 -2 9 -22 28 -33 30 -54 68 -29 52 5 -3 12 -1 15 4 4 5 -7 9 -24 9 -40 -1
-56 14 -36 35 14 13 14 16 1 21 -8 3 -15 12 -15 19 0 10 -13 15 -45 15 -25 1
-45 -3 -45 -9z m95 -37 c-2 -2 -13 2 -24 10 -12 8 -18 17 -15 21 3 3 14 -2 25
-11 10 -9 17 -18 14 -20z m-34 -22 c5 0 9 -5 9 -11 0 -5 -13 -2 -29 7 -17 10
-28 21 -25 26 3 4 12 1 20 -7 9 -8 20 -15 25 -15z m-66 10 c3 -5 -1 -10 -10
-10 -9 0 -13 5 -10 10 3 6 8 10 10 10 2 0 7 -4 10 -10z m-15 -25 c0 -1 -9 -5
-20 -8 -12 -3 -20 0 -20 8 0 8 8 11 20 8 11 -3 20 -7 20 -8z m23 -14 c-5 -3
-8 -16 -7 -28 1 -12 -3 -20 -8 -17 -4 3 -6 9 -3 14 3 5 1 11 -5 15 -6 4 -5 11
3 19 6 8 16 12 21 9 4 -3 4 -8 -1 -12z m-73 3 c0 -3 -7 -12 -15 -20 -13 -14
-15 -13 -15 5 0 12 6 21 15 21 8 0 15 -3 15 -6z m130 -138 c0 -2 -7 -6 -15
-10 -8 -3 -15 -1 -15 4 0 6 7 10 15 10 8 0 15 -2 15 -4z m13 -30 c4 -10 1 -13
-9 -9 -15 6 -19 23 -5 23 5 0 11 -7 14 -14z"/>
<path d="M38678 24526 c-22 -16 -22 -22 -2 -30 9 -3 12 -2 9 5 -4 6 2 8 18 4
14 -4 28 -2 31 4 4 6 0 11 -9 11 -9 0 -13 5 -10 10 9 14 -17 12 -37 -4z"/>
<path d="M38735 24493 c-33 -8 -40 -22 -9 -19 15 2 30 8 32 15 2 6 2 10 0 10
-1 -1 -12 -3 -23 -6z"/>
<path d="M39160 24496 c0 -2 7 -7 16 -10 8 -3 12 -2 9 4 -6 10 -25 14 -25 6z"/>
<path d="M38747 24463 c-13 -12 -7 -25 8 -19 8 3 14 1 12 -5 -1 -6 10 -20 26
-32 21 -16 30 -18 39 -9 9 9 8 12 -6 12 -10 0 -14 4 -10 12 5 8 0 9 -15 5 -17
-4 -20 -2 -12 7 18 21 -23 49 -42 29z"/>
<path d="M39235 24420 c10 -11 23 -20 28 -20 6 0 1 9 -11 20 -12 11 -24 20
-28 20 -4 0 1 -9 11 -20z"/>
<path d="M39160 24416 c0 -2 7 -7 16 -10 8 -3 12 -2 9 4 -6 10 -25 14 -25 6z"/>
<path d="M39135 24374 c-9 -9 -13 -19 -10 -22 3 -4 11 0 16 8 8 11 9 10 4 -7
-4 -14 -2 -23 4 -23 6 0 11 5 11 12 0 6 3 8 7 5 3 -4 12 -2 20 4 10 9 10 15 2
25 -15 18 -34 18 -54 -2z"/>
<path d="M39286 24351 c-4 -5 1 -8 9 -7 21 3 31 16 12 16 -9 0 -18 -4 -21 -9z"/>
<path d="M39340 24305 c13 -14 27 -25 32 -25 5 0 -2 11 -16 25 -14 14 -28 25
-32 25 -4 0 3 -11 16 -25z"/>
<path d="M39212 24293 c-6 -2 -10 -8 -7 -13 3 -4 -6 -11 -20 -14 -14 -4 -25
-11 -25 -16 0 -17 20 -11 47 14 15 14 30 23 35 20 4 -3 8 0 8 5 0 11 -16 13
-38 4z"/>
<path d="M39133 24234 c-17 -18 -16 -24 4 -24 15 0 14 -2 -3 -15 -18 -14 -17
-15 11 -9 29 6 29 6 10 -10 -20 -17 -20 -17 5 -10 23 6 24 6 10 -11 -14 -17
-13 -17 10 -10 23 7 24 7 10 -10 -14 -17 -13 -17 10 -10 14 4 29 14 33 21 4 8
15 14 22 14 8 0 15 6 15 14 0 18 -25 38 -35 28 -5 -4 -5 -2 -2 4 12 21 -21 38
-49 25 -31 -14 -32 -14 -36 3 -2 12 -5 12 -15 0z m77 -18 c0 -2 -7 -6 -15 -10
-8 -3 -15 -1 -15 4 0 6 7 10 15 10 8 0 15 -2 15 -4z m10 -20 c0 -3 -4 -8 -10
-11 -5 -3 -10 -1 -10 4 0 6 5 11 10 11 6 0 10 -2 10 -4z m20 -20 c0 -2 -7 -9
-15 -16 -13 -11 -14 -10 -9 4 5 14 24 23 24 12z"/>
<path d="M39360 24209 c0 -5 4 -8 9 -4 5 3 12 1 16 -5 4 -6 -6 -10 -24 -10
-36 0 -63 -9 -56 -20 3 -5 -8 -11 -25 -15 -16 -4 -33 -12 -37 -19 -5 -7 -16
-15 -25 -19 -28 -10 -21 -24 12 -23 22 1 30 6 30 20 0 13 5 17 20 13 13 -3 20
0 20 9 0 8 6 11 15 8 9 -4 15 0 15 10 0 9 5 16 10 16 12 0 12 -17 1 -44 -5
-13 -10 -16 -15 -8 -8 13 -44 -3 -59 -25 -4 -7 -16 -13 -25 -14 -14 0 -13 -2
3 -8 11 -5 27 -6 35 -3 13 5 13 3 1 -11 -9 -12 -10 -17 -2 -17 7 0 22 -10 34
-23 38 -40 108 -90 115 -83 3 4 0 11 -8 16 -8 5 -12 12 -8 15 3 4 16 -3 27
-14 l21 -21 22 20 c21 19 33 24 52 21 5 -1 4 5 -4 13 -7 9 -9 16 -4 16 4 0 -3
11 -16 25 -13 14 -29 25 -36 25 -16 0 -47 -30 -39 -38 3 -4 11 0 16 8 8 11 9
10 4 -7 -4 -14 -2 -23 4 -23 6 0 11 5 11 12 0 6 3 8 7 5 3 -4 11 -3 17 3 8 6
12 3 12 -11 0 -15 -5 -19 -19 -15 -15 4 -16 2 -6 -10 10 -12 8 -14 -12 -11
-13 2 -24 9 -24 15 0 25 -23 36 -50 24 -33 -15 -35 -15 -35 4 0 14 -3 14 -15
4 -12 -10 -15 -9 -15 8 0 11 6 23 13 25 7 3 5 6 -5 6 -10 1 -18 6 -18 11 0 18
38 -8 45 -30 8 -26 20 -25 52 4 15 14 30 23 35 20 4 -3 8 5 8 18 0 19 -2 20
-11 8 -9 -13 -10 -12 -5 3 3 11 0 17 -10 17 -8 0 -13 -3 -10 -8 2 -4 -2 -18
-10 -32 -7 -14 -13 -21 -14 -16 0 5 -7 2 -17 -5 -15 -13 -15 -10 -9 36 5 28
12 55 17 62 7 7 6 14 -2 18 -6 4 -15 1 -20 -6 -5 -8 -9 -9 -9 -4 0 6 4 16 9
24 7 11 13 10 35 -5 30 -22 33 -32 9 -30 -13 1 -17 -8 -18 -36 -1 -21 2 -38 7
-38 4 0 7 3 6 8 -5 18 14 50 32 55 12 3 20 14 20 26 0 12 5 21 11 21 11 0 -2
15 -36 40 -16 11 -15 9 3 -12 20 -22 21 -26 7 -32 -9 -3 -13 -2 -10 4 3 6 -1
13 -9 16 -9 3 -16 12 -16 20 0 8 -10 14 -25 14 -14 0 -25 -5 -25 -11z m10 -86
c0 -11 -20 -40 -20 -29 0 4 -11 1 -24 -7 -22 -15 -25 -15 -37 -1 -11 13 -10
15 2 13 23 -5 70 11 64 21 -3 6 -1 10 4 10 6 0 11 -3 11 -7z m50 -137 c0 -2
-7 -6 -15 -10 -8 -3 -15 -1 -15 4 0 6 7 10 15 10 8 0 15 -2 15 -4z"/>
<path d="M39088 24183 c7 -3 16 -2 19 1 4 3 -2 6 -13 5 -11 0 -14 -3 -6 -6z"/>
<path d="M39470 24156 c0 -2 7 -7 16 -10 8 -3 12 -2 9 4 -6 10 -25 14 -25 6z"/>
<path d="M39463 24111 c-1 -9 8 -21 20 -27 14 -6 21 -16 19 -28 -3 -15 1 -18
21 -14 20 4 23 1 19 -19 -3 -18 -1 -22 12 -17 9 3 16 2 16 -2 -1 -15 -26 -44
-38 -44 -6 0 -15 -6 -19 -13 -4 -8 -16 -16 -25 -20 -19 -7 -25 -27 -8 -27 6 0
23 11 37 24 15 14 30 23 35 20 4 -3 8 4 8 16 0 15 5 20 18 18 9 -2 16 -9 15
-16 -2 -6 9 -20 22 -30 27 -22 33 -37 11 -29 -7 3 -20 0 -27 -6 -11 -10 -11
-9 -1 4 10 13 9 19 -2 28 -18 15 -52 6 -60 -14 -7 -18 10 -20 18 -2 3 6 3 2 0
-10 -6 -24 10 -32 20 -10 3 6 3 2 0 -10 -5 -23 11 -33 18 -12 2 5 23 13 46 16
23 3 45 10 48 15 3 4 0 7 -8 6 -7 -2 -12 2 -11 9 2 7 -13 25 -32 40 -19 15
-35 34 -35 41 0 7 4 11 9 7 5 -3 12 -1 16 5 3 5 -1 10 -9 10 -8 0 -18 -5 -21
-10 -5 -8 -11 -7 -21 1 -7 6 -11 15 -9 20 3 4 -10 20 -30 36 -19 15 -35 34
-35 41 0 7 4 11 9 7 5 -3 12 -1 15 4 3 5 -9 9 -27 9 -24 0 -33 -5 -34 -17z"/>
<path d="M39545 24080 c10 -11 20 -18 23 -16 5 6 -23 36 -34 36 -4 0 1 -9 11
-20z"/>
<path d="M39470 24076 c0 -2 7 -7 16 -10 8 -3 12 -2 9 4 -6 10 -25 14 -25 6z"/>
<path d="M39580 24040 c0 -5 5 -10 11 -10 5 0 7 5 4 10 -3 6 -8 10 -11 10 -2
0 -4 -4 -4 -10z"/>
<path d="M39650 23965 c13 -14 27 -25 32 -25 5 0 -2 11 -16 25 -14 14 -28 25
-32 25 -4 0 3 -11 16 -25z"/>
<path d="M39490 23890 c-12 -8 -10 -10 9 -10 13 0 21 -3 18 -6 -7 -7 42 -54
56 -54 4 0 7 6 7 14 0 16 -24 38 -33 31 -4 -3 -5 -2 -2 2 7 8 -15 33 -29 33
-6 0 -18 -5 -26 -10z"/>
<path d="M39670 23869 c0 -5 4 -8 9 -4 5 3 12 1 16 -5 4 -6 -6 -10 -24 -10
-37 0 -62 -9 -55 -21 3 -5 -2 -9 -10 -9 -18 0 -21 -16 -6 -25 6 -3 10 -2 10 4
0 6 7 8 15 5 9 -4 15 0 15 10 0 9 5 16 10 16 11 0 12 -6 4 -38 -5 -19 -9 -20
-23 -10 -9 7 -5 0 8 -14 21 -24 51 -28 51 -7 0 5 4 9 10 9 6 0 6 -9 0 -25 -7
-19 -6 -25 4 -25 7 0 13 7 14 15 1 8 3 22 4 30 1 10 12 15 31 15 32 0 32 -10
1 -14 -12 -2 -19 -11 -19 -27 0 -14 5 -23 13 -21 6 1 12 -3 12 -9 0 -6 -9 -8
-22 -4 -22 6 -22 5 -4 -9 10 -9 23 -13 27 -10 5 3 9 -1 9 -10 0 -14 16 -16 36
-3 7 4 10 -2 9 -18 -2 -18 2 -23 15 -22 13 1 16 5 10 13 -6 6 -7 13 -4 16 2 3
-9 17 -25 31 -16 13 -27 28 -24 31 6 6 -13 10 -30 7 -5 -1 -7 3 -5 9 2 7 7 11
11 11 4 -1 13 -1 21 -1 8 0 16 -10 18 -22 2 -17 10 -23 29 -23 21 0 25 -3 21
-22 -3 -18 -1 -22 12 -17 21 8 20 -8 -2 -32 -18 -18 -17 -19 12 -44 17 -14 34
-24 38 -22 4 1 8 -3 8 -8 0 -12 65 -8 77 4 5 4 1 6 -7 4 -8 -1 -14 2 -13 9 2
7 -13 25 -32 40 -19 15 -35 34 -35 41 0 7 4 11 9 7 5 -3 12 -1 16 5 3 5 -1 10
-9 10 -8 0 -18 -5 -21 -10 -5 -8 -11 -7 -21 1 -7 6 -12 15 -9 19 3 5 -8 19
-24 33 -17 14 -28 27 -25 30 3 3 -4 8 -15 12 -12 3 -19 10 -16 15 3 5 13 6 22
3 15 -6 16 -5 3 9 -8 9 -17 13 -20 9 -9 -13 -35 -6 -35 9 -1 8 -7 14 -14 12
-7 -1 -10 2 -6 8 3 5 -1 13 -9 16 -9 3 -16 12 -16 20 0 8 -10 14 -25 14 -14 0
-25 -5 -25 -11z m48 -48 c25 -21 29 -36 8 -28 -7 3 -19 0 -25 -6 -8 -8 -11 -8
-11 1 0 7 5 12 12 12 9 0 9 3 0 12 -10 10 -15 10 -22 -2 -11 -17 -13 -9 -4 14
8 20 14 20 42 -3z m-38 -38 c-1 -18 -18 -35 -24 -24 -4 6 -2 11 4 11 6 0 8 5
5 10 -3 6 -1 10 4 10 6 0 11 -3 11 -7z m223 -161 c-2 -6 9 -20 24 -32 14 -11
23 -23 19 -27 -3 -3 -16 3 -29 15 -13 12 -29 22 -35 22 -7 0 -12 9 -12 21 0
14 5 19 18 17 9 -2 16 -9 15 -16z"/>
<path d="M39749 23857 c14 -15 29 -27 33 -27 10 0 -5 16 -37 40 -15 10 -14 7
4 -13z"/>
<path d="M39840 23757 c0 -7 9 -18 20 -25 12 -7 20 -8 20 -2 0 5 -4 10 -10 10
-5 0 -10 7 -10 15 0 8 -4 15 -10 15 -5 0 -10 -6 -10 -13z"/>
<path d="M39890 23700 c0 -5 5 -10 11 -10 5 0 7 5 4 10 -3 6 -8 10 -11 10 -2
0 -4 -4 -4 -10z"/>
<path d="M39960 23625 c13 -14 27 -25 32 -25 5 0 -2 11 -16 25 -14 14 -28 25
-32 25 -4 0 3 -11 16 -25z"/>
<path d="M39975 23530 c4 -6 10 -8 15 -5 5 3 11 1 15 -5 3 -5 -2 -10 -12 -11
-16 0 -15 -1 2 -9 12 -4 32 -19 45 -34 14 -14 28 -26 31 -26 4 0 22 -14 40
-31 17 -16 42 -35 53 -40 15 -8 14 -3 -7 15 -15 14 -24 26 -20 26 4 0 -4 8
-20 18 -15 10 -24 22 -20 26 5 4 1 6 -7 4 -8 -1 -14 4 -15 12 0 8 -7 14 -14
12 -7 -1 -10 2 -6 7 3 6 -4 15 -15 21 -11 6 -18 15 -15 21 4 5 -8 9 -25 9 -19
0 -29 -4 -25 -10z"/>
<path d="M40059 23517 c14 -15 29 -27 33 -27 10 0 -5 16 -37 40 -15 10 -14 7
4 -13z"/>
<path d="M40110 23461 c0 -10 19 -25 25 -20 1 2 -3 10 -11 17 -8 7 -14 8 -14
3z"/>
<path d="M40150 23417 c0 -7 9 -18 20 -25 12 -7 20 -8 20 -2 0 5 -4 10 -10 10
-5 0 -10 7 -10 15 0 8 -4 15 -10 15 -5 0 -10 -6 -10 -13z"/>
<path d="M39690 23381 c0 -5 7 -12 16 -15 14 -5 15 -4 4 9 -14 17 -20 19 -20
6z"/>
<path d="M39730 23340 c0 -5 5 -10 10 -10 6 0 10 5 10 10 0 6 -4 10 -10 10 -5
0 -10 -4 -10 -10z"/>
<path d="M40225 23330 c4 -6 11 -8 16 -5 14 9 11 15 -7 15 -8 0 -12 -5 -9 -10z"/>
<path d="M39758 23313 c-11 -14 -10 -16 9 -11 14 4 27 0 35 -10 11 -13 10 -15
-4 -9 -12 4 -15 2 -12 -8 3 -7 12 -16 20 -19 9 -3 12 -1 9 4 -7 12 -3 12 20 4
14 -6 14 -8 -1 -25 -16 -18 -16 -19 4 -19 12 0 22 5 22 10 0 6 5 10 10 10 16
0 11 -28 -6 -38 -25 -14 1 -25 28 -12 22 11 22 10 4 -4 -28 -23 -12 -32 19
-12 l26 17 -28 25 c-15 14 -54 45 -85 69 -51 39 -58 42 -70 28z"/>
<path d="M40260 23295 c7 -8 17 -15 22 -15 5 0 3 7 -6 15 -8 8 -18 15 -22 15
-3 0 -1 -7 6 -15z"/>
<path d="M39916 23158 c-13 -15 -13 -18 -2 -18 8 0 16 6 19 13 2 6 8 8 13 4 4
-4 3 -17 -4 -27 -11 -18 -10 -20 20 -16 26 3 33 8 34 26 1 21 0 22 -11 7 -12
-17 -13 -17 -20 0 -5 10 -8 21 -7 24 2 13 -28 4 -42 -13z"/>
<path d="M40054 23095 c14 -14 31 -25 38 -25 15 1 -38 50 -53 50 -5 0 1 -11
15 -25z"/>
<path d="M39976 23095 c-25 -19 -14 -30 16 -15 22 11 22 10 4 -4 -28 -22 -12
-32 19 -12 22 15 24 19 11 31 -18 18 -26 18 -50 0z"/>
<path d="M40018 23056 c-22 -17 -22 -22 -1 -30 10 -4 14 -4 11 0 -4 3 3 15 15
25 26 22 3 27 -25 5z"/>
<path d="M40113 23040 c2 -11 9 -26 17 -33 10 -10 11 -9 5 3 -8 13 -6 13 8 1
9 -7 15 -16 12 -20 -2 -4 5 -14 16 -21 10 -8 19 -20 19 -27 0 -7 7 -13 15 -13
8 0 15 -7 15 -16 0 -8 4 -13 9 -9 5 3 13 0 17 -7 4 -7 4 -10 -1 -6 -4 4 -14 3
-22 -3 -13 -11 -14 -10 -17 14 -1 13 -45 11 -60 -3 -15 -15 4 -33 20 -19 8 6
18 9 22 5 4 -4 -1 -14 -11 -21 -10 -7 -14 -16 -8 -19 12 -8 61 14 61 26 0 5 9
6 20 3 18 -6 25 3 21 27 0 4 13 6 29 4 25 -3 28 -1 19 10 -7 8 -19 13 -28 12
-9 -2 -15 3 -13 10 1 6 -3 12 -8 12 -6 0 -10 -6 -8 -12 2 -7 -2 -13 -7 -13 -6
0 -9 3 -7 8 1 4 -9 12 -23 17 -14 5 -25 12 -25 15 0 4 6 3 13 -1 6 -4 4 2 -7
14 -10 12 -23 19 -28 16 -4 -3 -7 0 -6 7 2 7 -7 18 -19 24 -13 5 -23 15 -23
22 0 7 -4 13 -10 13 -5 0 -8 -9 -7 -20z"/>
<path d="M40053 23036 c3 -7 1 -18 -5 -24 -8 -8 -3 -10 18 -8 15 2 30 8 32 15
2 6 -3 9 -12 5 -11 -4 -16 -1 -16 10 0 9 -5 16 -11 16 -6 0 -9 -6 -6 -14z"/>
<path d="M40076 22985 c-25 -19 -12 -33 14 -17 11 7 20 9 19 5 -3 -20 2 -24
16 -13 12 10 13 16 4 26 -14 18 -29 17 -53 -1z"/>
<path d="M40230 22970 c0 -5 5 -10 11 -10 5 0 7 5 4 10 -3 6 -8 10 -11 10 -2
0 -4 -4 -4 -10z"/>
<path d="M40125 22949 c-4 -6 -13 -8 -21 -5 -8 3 -11 0 -8 -9 3 -7 12 -16 20
-19 9 -3 12 -1 9 5 -4 6 2 8 18 4 14 -4 28 -2 31 4 4 6 0 11 -9 11 -9 0 -13 5
-10 10 3 6 -1 10 -9 10 -8 0 -18 -5 -21 -11z"/>
<path d="M40274 22868 c-5 -16 -30 -24 -57 -19 -5 1 -6 -3 -2 -9 3 -5 1 -10
-4 -10 -16 0 -13 -20 3 -26 8 -3 27 6 43 20 30 28 49 21 38 -14 -6 -19 -8 -19
-18 -6 -11 14 -13 13 -23 -9 -11 -24 -11 -24 20 -21 18 2 31 9 31 17 0 8 5 14
10 14 6 0 9 -3 8 -7 -2 -5 4 -8 13 -8 8 0 12 -4 9 -10 -3 -5 1 -10 10 -10 9 0
14 -4 10 -9 -3 -6 4 -15 15 -21 11 -6 20 -17 20 -25 0 -8 6 -14 13 -12 6 1 11
-4 10 -10 -2 -7 5 -13 14 -13 9 0 13 -3 10 -6 -3 -4 7 -19 23 -34 17 -16 30
-33 30 -39 0 -6 6 -11 14 -11 7 0 16 -9 19 -20 3 -11 11 -19 19 -18 7 2 12 -3
11 -9 -2 -7 2 -13 7 -13 6 0 10 -4 10 -10 0 -5 -9 -10 -19 -10 -11 0 -23 -5
-26 -11 -4 -6 -13 -8 -21 -5 -12 4 -12 2 -4 -14 14 -26 25 -25 57 4 15 14 30
23 35 20 13 -8 -2 -77 -19 -91 -21 -16 1 -26 29 -13 22 11 22 10 4 -4 -29 -23
-11 -32 21 -11 16 11 23 20 15 23 -20 6 -14 22 9 22 11 0 18 -4 14 -9 -3 -6 4
-15 15 -21 11 -6 20 -17 20 -25 0 -8 6 -14 13 -12 6 1 11 -4 10 -10 -2 -7 5
-13 14 -13 9 0 13 -3 10 -6 -3 -4 7 -19 23 -34 17 -16 30 -33 30 -39 0 -6 6
-11 14 -11 7 0 16 -9 19 -20 3 -11 10 -19 15 -18 6 2 10 -1 10 -5 1 -5 9 -16
20 -25 10 -9 21 -25 25 -35 4 -10 11 -16 16 -13 11 7 33 -18 24 -28 -4 -4 3
-9 15 -13 12 -3 20 -8 18 -12 -2 -3 7 -14 20 -24 13 -10 24 -13 24 -7 0 17 -5
25 -13 22 -5 -1 -6 2 -3 7 3 5 -1 15 -10 22 -14 12 -14 14 5 21 16 5 27 2 44
-15 l22 -22 3 24 c2 13 -2 27 -9 32 -8 4 -11 11 -7 14 3 4 16 -3 27 -14 l21
-21 22 20 c21 19 33 24 52 21 5 -1 4 4 -2 12 -7 8 -9 16 -6 19 2 3 -9 17 -25
31 -16 13 -27 28 -24 31 6 6 -13 10 -30 7 -5 -1 -7 3 -5 9 2 7 7 11 11 11 4
-1 13 -1 21 -1 8 0 16 -10 18 -22 2 -17 10 -23 29 -23 21 0 25 -3 21 -22 -3
-18 -1 -22 12 -17 9 3 16 2 16 -2 -1 -15 -24 -40 -42 -47 -10 -3 -18 -10 -18
-16 0 -5 -9 -11 -20 -14 -11 -3 -20 -10 -20 -16 0 -18 19 -13 47 13 15 14 30
23 35 20 4 -3 8 4 8 16 0 14 5 20 16 18 8 -2 15 -7 15 -13 1 -16 31 -45 40
-39 5 3 9 -2 9 -11 0 -11 -5 -15 -14 -12 -7 3 -20 0 -27 -6 -11 -10 -11 -9 -1
4 10 13 9 19 -2 28 -18 15 -52 6 -60 -14 -7 -18 10 -20 18 -2 3 6 3 2 0 -10
-6 -24 10 -32 20 -10 3 6 3 2 0 -10 -3 -13 -1 -23 5 -23 6 0 11 4 11 8 0 10
71 34 78 27 3 -3 0 -11 -7 -18 -9 -12 -7 -14 11 -13 13 0 22 -4 21 -11 -2 -6
9 -21 22 -31 27 -22 33 -37 11 -29 -7 3 -19 0 -25 -6 -8 -8 -11 -8 -11 1 0 7
5 12 11 12 8 0 8 5 -1 15 -16 19 -35 19 -55 -1 -12 -12 -13 -19 -4 -30 13 -16
33 -19 24 -4 -3 6 -1 10 5 10 7 0 9 -8 5 -20 -3 -11 -2 -20 3 -20 6 0 12 5 14
11 2 5 23 13 46 16 23 3 45 10 48 15 3 4 0 7 -7 6 -7 -2 -14 4 -14 12 0 8 -7
14 -14 12 -7 -1 -10 2 -7 7 4 5 -8 20 -26 32 -52 36 -61 53 -35 61 17 5 18 6
4 7 -23 1 -87 52 -87 69 0 7 -4 11 -9 8 -10 -7 -34 18 -25 26 3 4 -16 22 -42
42 -56 43 -99 45 -99 5 0 -14 5 -23 13 -21 6 1 12 -3 12 -9 0 -6 -9 -8 -22 -4
-21 6 -22 5 -5 -8 16 -13 16 -15 1 -21 -23 -9 -24 -8 -24 14 0 11 -7 20 -15
20 -8 0 -15 7 -15 16 0 8 -5 12 -10 9 -6 -4 -10 -3 -9 2 4 21 -3 24 -25 10
-22 -15 -25 -15 -37 -1 -11 13 -10 15 2 13 23 -5 70 11 64 21 -3 6 -1 10 5 10
7 0 9 -8 5 -20 -4 -11 -2 -20 4 -20 6 0 11 5 11 10 0 6 4 10 10 10 6 0 6 -9 0
-25 -7 -19 -6 -25 4 -25 7 0 13 7 14 15 1 8 3 22 4 30 1 9 12 15 27 15 20 0
22 3 11 9 -8 6 -18 7 -23 4 -4 -3 -17 3 -28 13 -17 16 -22 16 -29 4 -13 -20
-12 -3 0 21 9 16 7 19 -14 19 -32 0 -57 -10 -51 -20 3 -5 -8 -11 -25 -15 -16
-4 -33 -12 -37 -19 -5 -7 -16 -15 -25 -19 -28 -10 -21 -24 12 -23 22 1 30 6
30 20 0 13 5 17 20 13 13 -3 20 0 20 9 0 8 6 11 15 8 9 -4 15 0 15 10 0 9 5
16 10 16 12 0 12 -17 1 -44 -5 -13 -10 -16 -15 -8 -8 13 -44 -3 -59 -25 -4 -7
-15 -13 -22 -13 -18 0 -20 -16 -3 -26 6 -4 8 -3 5 3 -4 6 4 11 19 11 24 0 24
-1 7 -21 -18 -19 -17 -19 7 -12 23 7 24 7 10 -10 -14 -16 -13 -17 8 -11 13 5
22 3 22 -3 0 -6 -5 -11 -11 -11 -6 0 -9 -7 -6 -15 9 -21 -9 -27 -24 -8 -12 14
-12 16 1 8 10 -5 8 -1 -4 13 -10 12 -23 19 -29 15 -6 -3 -7 -1 -3 5 3 6 -3 16
-14 22 -11 6 -18 15 -15 21 4 5 -5 13 -19 19 -14 5 -26 12 -26 15 0 4 6 3 13
-1 6 -4 -4 9 -22 29 -19 21 -41 37 -49 37 -8 0 -12 6 -8 15 4 10 -1 15 -15 15
-13 0 -19 6 -17 18 2 10 -2 16 -10 14 -8 -1 -11 2 -8 7 3 5 -1 15 -10 22 -14
12 -14 14 5 21 16 5 27 2 44 -15 l22 -22 3 24 c2 13 -2 27 -9 32 -8 4 -11 11
-7 14 3 4 16 -3 28 -15 12 -12 25 -18 29 -13 3 5 17 17 31 26 24 17 24 17 2
17 -14 0 -26 8 -31 22 -5 14 -10 18 -15 9 -4 -7 2 -20 16 -31 l23 -20 -25 4
c-14 1 -23 5 -20 8 3 3 -1 12 -8 20 -10 13 -10 17 0 20 10 4 10 8 -1 21 -7 10
-19 17 -25 17 -6 0 -3 -7 7 -14 16 -12 16 -14 1 -20 -23 -9 -24 -8 -24 17 -1
22 -1 22 -15 2 -13 -17 -13 -20 0 -28 21 -12 19 -27 -5 -27 -14 0 -20 7 -20
23 -1 21 -1 21 -15 3 -13 -17 -12 -21 3 -32 9 -7 15 -14 12 -16 -75 -56 -80
-59 -86 -44 -9 23 5 39 22 25 11 -9 14 -8 14 4 0 8 3 24 6 34 5 17 5 17 -6 1
-6 -10 -15 -18 -20 -18 -17 0 -11 39 8 49 13 9 9 10 -21 7 -20 -3 -35 -1 -32
4 3 5 -4 14 -15 20 -11 6 -18 15 -15 21 4 5 -5 13 -19 19 -14 5 -26 12 -26 15
0 4 6 3 13 -1 6 -4 -4 9 -22 29 -19 21 -41 37 -49 37 -8 0 -12 6 -8 15 4 10
-1 15 -15 15 -13 0 -19 6 -17 18 2 11 -2 16 -12 14 -8 -2 -12 0 -7 4 9 9 -22
44 -40 44 -9 0 -12 9 -8 33 4 25 3 28 -5 15 -6 -10 -15 -18 -20 -18 -17 0 -11
39 8 49 14 8 11 10 -16 8 -21 -1 -34 -8 -38 -19z m776 -542 c0 -3 -4 -8 -10
-11 -5 -3 -10 -1 -10 4 0 6 5 11 10 11 6 0 10 -2 10 -4z m-60 -70 c0 -2 -7 -9
-15 -16 -13 -11 -14 -10 -9 4 5 14 24 23 24 12z m20 -25 c0 -5 -7 -11 -15 -15
-15 -5 -20 5 -8 17 9 10 23 9 23 -2z m17 -15 c-3 -8 1 -17 9 -20 21 -8 17 -26
-6 -26 -11 0 -20 6 -20 14 0 18 10 46 17 46 3 0 3 -6 0 -14z m78 -16 c-4 -11
-2 -20 4 -20 6 0 11 5 11 12 0 6 3 8 7 5 3 -4 12 -2 19 4 8 7 14 6 20 -2 5 -8
3 -9 -6 -4 -10 6 -12 4 -7 -10 6 -14 3 -16 -13 -12 -18 4 -19 3 -9 -9 10 -12
8 -14 -12 -11 -13 2 -24 9 -24 15 0 6 -3 13 -7 17 -4 4 -1 13 5 21 17 19 19
17 12 -6z m-118 -12 c-2 -7 3 -18 12 -25 14 -11 14 -13 -4 -27 -11 -8 -23 -16
-27 -16 -12 0 -10 26 4 55 11 26 23 35 15 13z"/>
<path d="M40353 22876 c4 -10 7 -20 7 -22 0 -2 8 -4 17 -4 15 0 14 -2 -3 -15
-18 -14 -17 -15 11 -9 29 6 29 6 10 -10 -20 -17 -20 -17 3 -11 22 6 32 -10 10
-17 -9 -3 -9 -6 0 -12 7 -4 12 -2 12 4 0 8 6 8 20 0 17 -9 20 -8 20 9 0 11
-17 32 -42 50 -24 17 -49 36 -57 43 -12 10 -14 9 -8 -6z"/>
<path d="M40473 22769 c-18 -18 -16 -29 4 -29 15 0 14 -2 -3 -15 -18 -14 -17
-15 11 -9 29 6 29 6 10 -10 -20 -17 -20 -17 5 -10 23 6 24 6 10 -11 -14 -17
-13 -17 10 -10 23 7 24 7 10 -10 -14 -17 -13 -17 10 -10 14 4 29 14 33 21 4 8
16 14 25 14 13 0 9 7 -13 25 -16 14 -38 23 -48 21 -13 -3 -17 0 -13 10 4 11 1
14 -13 9 -13 -4 -20 -1 -23 10 -2 13 -5 14 -15 4z m87 -43 c0 -3 -4 -8 -10
-11 -5 -3 -10 -1 -10 4 0 6 5 11 10 11 6 0 10 -2 10 -4z m20 -20 c0 -2 -7 -9
-15 -16 -13 -11 -14 -10 -9 4 5 14 24 23 24 12z"/>
<path d="M40286 22755 c-25 -19 -14 -30 16 -15 22 11 22 10 4 -4 -28 -22 -12
-32 19 -12 22 15 24 19 11 31 -18 18 -26 18 -50 0z"/>
<path d="M40326 22709 c-19 -23 0 -26 24 -4 15 14 17 13 15 -6 -1 -11 -8 -25
-16 -30 -9 -6 -3 -8 21 -5 19 2 36 9 38 16 3 9 -1 11 -11 7 -11 -4 -17 1 -19
15 -4 27 -31 31 -52 7z"/>
<path d="M40583 22667 c-4 -8 -16 -16 -25 -20 -28 -10 -21 -24 12 -23 22 1 30
6 30 20 0 13 5 17 20 13 13 -3 20 0 20 9 0 18 -46 19 -57 1z"/>
<path d="M40386 22645 c-25 -19 -14 -30 16 -15 22 11 22 10 4 -4 -28 -22 -12
-32 19 -12 22 15 24 19 11 31 -18 18 -26 18 -50 0z"/>
<path d="M40635 22646 c-11 -6 -24 -17 -28 -23 -4 -7 -15 -13 -22 -13 -18 0
-20 -16 -3 -26 6 -4 8 -3 5 3 -4 6 4 11 19 11 24 0 24 -1 7 -21 -17 -19 -17
-20 0 -14 11 4 25 -1 37 -13 20 -20 20 -20 20 -1 0 11 6 22 13 24 7 3 5 6 -5
6 -10 1 -18 6 -18 11 0 14 36 -5 43 -22 3 -7 6 1 6 17 0 41 -45 78 -74 61z
m44 -19 c-2 -2 -11 -8 -20 -15 -13 -10 -19 -10 -28 1 -9 11 -5 14 20 15 17 0
29 0 28 -1z"/>
<path d="M40428 22606 c-22 -16 -22 -22 -2 -30 9 -3 12 -2 9 5 -4 6 2 8 18 4
14 -4 28 -2 31 4 4 6 0 11 -9 11 -9 0 -13 5 -10 10 9 14 -17 12 -37 -4z"/>
<path d="M40485 22572 c-27 -5 -39 -18 -30 -32 5 -8 11 -8 21 1 8 6 18 9 22 5
4 -4 -2 -14 -12 -22 -15 -10 -16 -14 -5 -14 8 0 21 6 28 13 10 8 12 8 7 0 -10
-18 10 -25 24 -9 9 12 7 17 -10 26 -11 6 -18 15 -15 20 7 12 -6 17 -30 12z"/>
<path d="M40853 22477 c-4 -8 -16 -16 -25 -20 -19 -7 -25 -27 -8 -27 6 0 23
11 37 24 28 27 54 25 28 -1 -9 -8 -13 -18 -10 -21 3 -4 11 0 16 8 8 11 9 10 4
-7 -7 -24 9 -32 19 -10 3 6 3 2 0 -10 -3 -13 -1 -23 5 -23 6 0 11 5 11 10 0 6
7 10 15 10 8 0 15 5 15 11 0 6 -7 8 -16 5 -9 -4 -13 -2 -8 5 7 12 -43 58 -63
59 -7 0 -16 -6 -20 -13z"/>
<path d="M40563 22454 c-9 -19 -8 -24 2 -24 16 0 29 30 18 41 -4 4 -13 -3 -20
-17z"/>
<path d="M40715 22440 c3 -5 8 -10 11 -10 2 0 4 5 4 10 0 6 -5 10 -11 10 -5 0
-7 -4 -4 -10z"/>
<path d="M40783 22429 c-18 -18 -16 -29 4 -29 15 0 14 -2 -3 -15 -18 -14 -17
-15 11 -9 29 6 29 6 10 -10 -20 -17 -20 -17 5 -10 23 6 24 6 10 -11 -14 -17
-13 -17 10 -10 23 7 24 7 10 -10 -14 -17 -13 -17 10 -10 14 4 29 14 33 21 4 8
15 14 22 14 8 0 15 6 15 14 0 18 -25 38 -35 28 -5 -4 -5 -2 -2 4 12 21 -21 38
-49 25 -32 -14 -32 -14 -36 5 -2 12 -5 13 -15 3z m77 -23 c0 -2 -7 -6 -15 -10
-8 -3 -15 -1 -15 4 0 6 7 10 15 10 8 0 15 -2 15 -4z m10 -20 c0 -3 -4 -8 -10
-11 -5 -3 -10 -1 -10 4 0 6 5 11 10 11 6 0 10 -2 10 -4z m20 -20 c0 -2 -7 -9
-15 -16 -13 -11 -14 -10 -9 4 5 14 24 23 24 12z"/>
<path d="M40636 22369 c-19 -23 0 -26 24 -4 15 14 17 13 15 -6 -1 -11 -8 -25
-16 -30 -9 -6 -3 -8 21 -5 19 2 36 9 38 16 3 9 -1 11 -11 7 -11 -4 -17 1 -19
15 -4 27 -31 31 -52 7z"/>
<path d="M37928 22353 c7 -3 16 -2 19 1 4 3 -2 6 -13 5 -11 0 -14 -3 -6 -6z"/>
<path d="M40699 22303 c-12 -15 -12 -16 8 -11 16 4 20 2 16 -8 -6 -17 9 -18
24 -3 9 9 8 15 -2 25 -18 18 -30 18 -46 -3z"/>
<path d="M40746 22271 c-9 -15 22 -34 41 -26 17 8 17 8 0 12 -9 3 -15 9 -12
14 4 5 -1 9 -9 9 -8 0 -17 -4 -20 -9z"/>
<path d="M40801 22231 c-9 -6 -4 -14 19 -31 17 -12 34 -20 36 -17 3 3 -4 10
-15 17 -12 6 -19 15 -16 20 8 13 -9 20 -24 11z"/>
<path d="M41294 22161 c20 -22 26 -25 26 -13 0 4 -10 13 -22 21 -23 14 -23 14
-4 -8z"/>
<path d="M41025 22100 c3 -5 8 -10 11 -10 2 0 4 5 4 10 0 6 -5 10 -11 10 -5 0
-7 -4 -4 -10z"/>
<path d="M41093 22089 c-18 -18 -16 -29 4 -29 15 0 14 -2 -3 -15 -18 -14 -17
-15 11 -9 29 6 29 6 10 -10 -20 -17 -20 -17 5 -10 23 6 24 6 10 -11 -14 -17
-13 -17 10 -10 22 7 23 6 12 -8 -11 -13 -10 -15 8 -10 11 3 20 10 19 17 -3 23
1 36 12 36 8 0 8 -4 0 -14 -10 -12 -8 -13 9 -9 11 3 23 10 26 15 8 13 -16 39
-29 31 -5 -3 -7 -1 -4 4 4 6 0 16 -8 23 -12 10 -21 10 -41 1 -32 -14 -32 -14
-36 5 -2 12 -5 13 -15 3z m77 -23 c0 -2 -7 -6 -15 -10 -8 -3 -15 -1 -15 4 0 6
7 10 15 10 8 0 15 -2 15 -4z m10 -20 c0 -3 -4 -8 -10 -11 -5 -3 -10 -1 -10 4
0 6 5 11 10 11 6 0 10 -2 10 -4z"/>
<path d="M41346 22092 c-2 -4 4 -9 15 -9 10 -1 19 2 19 8 0 11 -27 12 -34 1z"/>
<path d="M41399 22047 c14 -15 29 -27 33 -27 10 0 -5 16 -37 40 -15 10 -14 7
4 -13z"/>
<path d="M41045 22030 c4 -6 11 -8 16 -5 14 9 11 15 -7 15 -8 0 -12 -5 -9 -10z"/>
<path d="M41272 22033 c-6 -2 -10 -8 -7 -13 3 -4 -6 -11 -20 -14 -14 -4 -25
-11 -25 -16 0 -17 20 -11 47 14 15 14 30 23 35 20 4 -3 8 0 8 5 0 11 -16 13
-38 4z"/>
<path d="M41080 22006 c0 -2 8 -10 18 -17 15 -13 16 -12 3 4 -13 16 -21 21
-21 13z"/>
<path d="M41193 21974 c-17 -18 -16 -24 4 -24 15 0 14 -2 -3 -15 -18 -14 -18
-14 6 -16 14 -1 32 0 39 1 13 1 13 -1 2 -14 -11 -14 -11 -16 3 -16 10 0 14 -4
11 -10 -3 -5 3 -10 13 -10 11 0 22 7 26 15 3 8 12 15 21 15 24 0 18 24 -15 55
-26 25 -33 27 -55 17 -32 -15 -33 -15 -37 2 -2 12 -5 12 -15 0z m106 -27 c-2
-2 -11 -8 -20 -15 -13 -10 -19 -10 -28 1 -9 11 -5 14 20 15 17 0 29 0 28 -1z
m1 -31 c0 -2 -7 -9 -15 -16 -13 -11 -14 -10 -9 4 5 14 24 23 24 12z"/>
<path d="M41420 21950 c0 -6 4 -9 9 -5 5 3 12 1 16 -5 4 -6 -6 -10 -24 -10
-36 0 -63 -9 -56 -20 3 -4 -7 -11 -23 -15 -15 -4 -35 -15 -44 -25 -16 -17 -15
-19 22 -45 21 -15 43 -24 49 -20 15 9 49 -12 56 -35 8 -26 20 -25 52 4 15 14
30 23 35 20 4 -3 8 5 8 18 0 19 -2 20 -11 8 -9 -13 -10 -12 -5 3 3 11 0 17
-10 17 -8 0 -13 -3 -10 -8 2 -4 -2 -18 -10 -32 -7 -14 -13 -21 -14 -16 0 5 -7
2 -16 -5 -15 -12 -16 -9 -9 41 4 30 12 58 17 61 6 4 2 11 -8 18 -25 14 -11 14
21 -1 29 -13 33 -26 8 -24 -13 1 -17 -8 -18 -36 -1 -21 2 -38 7 -38 4 0 7 3 6
8 -5 18 14 50 32 55 12 3 20 14 20 26 0 12 5 21 10 21 6 0 0 10 -11 21 -24 24
-99 39 -99 19z m87 -42 c-6 -4 -16 -8 -22 -8 -5 0 -3 4 5 10 12 8 12 10 -3 16
-9 3 -15 10 -12 15 3 4 14 1 25 -8 15 -13 16 -19 7 -25z m-92 -8 c3 -5 -1 -10
-10 -10 -9 0 -13 5 -10 10 3 6 8 10 10 10 2 0 7 -4 10 -10z m-15 -25 c0 -1 -9
-5 -20 -8 -12 -3 -20 0 -20 8 0 8 8 11 20 8 11 -3 20 -7 20 -8z m21 -33 c-6
-10 -8 -22 -4 -25 3 -4 -6 -1 -20 6 -22 10 -24 13 -9 19 9 4 13 7 9 7 -4 1 -2
7 5 15 18 19 32 3 19 -22z m-71 22 c0 -3 -7 -12 -15 -20 -13 -14 -15 -13 -15
5 0 12 6 21 15 21 8 0 15 -3 15 -6z m10 -34 c0 -5 -2 -10 -4 -10 -3 0 -8 5
-11 10 -3 6 -1 10 4 10 6 0 11 -4 11 -10z"/>
<path d="M41530 21896 c0 -2 7 -7 16 -10 8 -3 12 -2 9 4 -6 10 -25 14 -25 6z"/>
<path d="M41523 21851 c-1 -9 8 -21 20 -27 14 -6 21 -16 19 -28 -3 -15 1 -18
21 -14 20 4 23 1 19 -19 -3 -18 -1 -22 12 -17 9 3 16 2 16 -2 -1 -15 -24 -40
-42 -47 -10 -3 -18 -11 -18 -17 0 -5 -7 -10 -15 -10 -15 0 -20 -12 -9 -23 3
-3 18 5 32 18 14 13 29 22 34 19 4 -3 8 4 8 16 0 15 5 20 18 18 9 -2 16 -9 15
-16 -2 -6 9 -20 22 -30 27 -22 33 -37 11 -29 -7 3 -20 0 -27 -6 -11 -10 -11
-9 -1 4 9 12 9 18 0 27 -18 18 -32 15 -61 -12 l-26 -24 37 -28 c20 -15 34 -24
30 -20 -13 15 21 38 63 43 22 3 42 10 45 15 3 4 0 7 -8 6 -7 -2 -12 2 -11 9 2
7 -13 25 -32 40 -19 15 -35 34 -35 41 0 7 4 11 9 7 5 -3 12 -1 16 5 3 5 -1 10
-9 10 -8 0 -18 -5 -21 -10 -5 -8 -11 -7 -21 1 -7 6 -11 15 -9 20 3 4 -10 20
-30 36 -19 15 -35 34 -35 41 0 7 4 11 9 7 5 -3 12 -1 15 4 3 5 -9 9 -27 9 -24
0 -33 -5 -34 -17z m92 -211 c-4 -11 -2 -20 4 -20 6 0 11 5 11 12 0 6 2 9 5 6
3 -3 3 -13 -1 -22 -6 -16 -8 -16 -25 0 -14 13 -15 19 -6 30 17 19 19 17 12 -6z"/>
<path d="M41605 21820 c10 -11 20 -18 23 -16 5 6 -23 36 -34 36 -4 0 1 -9 11
-20z"/>
<path d="M41530 21816 c0 -2 7 -7 16 -10 8 -3 12 -2 9 4 -6 10 -25 14 -25 6z"/>
<path d="M41370 21790 c0 -14 15 -19 29 -11 9 6 7 10 -8 14 -12 3 -21 1 -21
-3z"/>
<path d="M41504 21773 c-10 -10 -29 -23 -43 -30 l-26 -11 25 -1 c20 -1 22 -3
10 -11 -10 -6 -11 -10 -2 -10 6 0 21 -9 32 -20 l20 -20 22 20 c21 19 33 24 52
21 5 -1 4 5 -4 13 -7 9 -9 16 -4 16 4 0 -3 11 -16 25 -28 30 -42 31 -66 8z
m11 -23 c-4 -11 -2 -20 4 -20 6 0 11 5 11 12 0 6 3 8 7 5 3 -4 12 -2 19 4 8 7
14 6 20 -2 5 -8 3 -9 -6 -4 -10 6 -12 4 -7 -10 6 -14 3 -16 -13 -12 -18 4 -19
3 -9 -9 10 -12 8 -14 -12 -11 -13 2 -24 9 -24 15 0 6 -3 13 -7 17 -4 4 -1 13
5 21 17 19 19 17 12 -6z"/>
<path d="M41640 21780 c0 -5 5 -10 11 -10 5 0 7 5 4 10 -3 6 -8 10 -11 10 -2
0 -4 -4 -4 -10z"/>
<path d="M41710 21705 c13 -14 27 -25 32 -25 5 0 -2 11 -16 25 -14 14 -28 25
-32 25 -4 0 3 -11 16 -25z"/>
<path d="M41730 21609 c0 -5 4 -8 9 -4 5 3 12 1 16 -5 4 -6 -7 -10 -27 -10
-18 0 -37 -4 -43 -8 -16 -11 -16 -30 0 -36 9 -3 15 1 15 9 0 8 5 15 11 15 7 0
9 -10 5 -25 -5 -19 -3 -23 9 -19 10 4 15 0 15 -12 0 -15 3 -14 14 6 14 28 2
55 -14 30 -5 -8 -10 -10 -10 -5 0 6 4 16 9 24 7 11 13 10 35 -5 27 -21 35 -37
12 -28 -20 7 -28 -10 -17 -37 8 -24 8 -24 15 -2 4 11 16 23 26 26 12 3 20 14
20 26 0 12 5 21 11 21 11 0 -2 15 -36 40 -16 11 -15 9 3 -12 20 -22 21 -26 7
-32 -9 -3 -13 -2 -10 4 3 6 -1 13 -9 16 -9 3 -16 12 -16 20 0 8 -10 14 -25 14
-14 0 -25 -5 -25 -11z"/>
<path d="M41840 21556 c0 -2 7 -7 16 -10 8 -3 12 -2 9 4 -6 10 -25 14 -25 6z"/>
<path d="M41832 21522 c2 -22 -4 -30 -21 -25 -14 4 -18 -1 -17 -19 0 -13 6
-23 11 -23 6 0 26 -14 45 -32 19 -17 38 -29 43 -26 11 7 -32 53 -50 53 -7 0
-13 9 -13 20 0 11 6 20 13 20 20 0 36 -21 30 -38 -5 -12 -1 -14 19 -10 21 4
24 2 20 -19 -3 -18 -1 -22 12 -17 17 7 22 -11 6 -21 -5 -3 -10 -12 -9 -18 0
-9 2 -9 6 1 6 14 29 16 38 2 4 -6 -1 -7 -12 -3 -10 4 -2 -7 17 -23 19 -16 39
-34 43 -41 10 -16 33 -17 42 -3 4 6 1 9 -7 8 -7 -2 -12 2 -11 9 2 7 -13 25
-32 40 -19 15 -35 34 -35 41 0 7 4 11 9 7 5 -3 12 -1 16 5 3 5 -1 10 -9 10 -8
0 -18 -5 -21 -10 -5 -8 -11 -7 -21 1 -7 6 -11 15 -9 20 3 4 -10 20 -30 36 -19
15 -35 34 -35 41 0 7 4 11 9 7 5 -3 12 -1 15 4 3 5 -10 9 -29 9 -19 0 -34 -3
-33 -6z"/>
<path d="M41915 21480 c10 -11 20 -18 23 -16 5 6 -23 36 -34 36 -4 0 1 -9 11
-20z"/>
<path d="M41840 21476 c0 -2 7 -7 16 -10 8 -3 12 -2 9 4 -6 10 -25 14 -25 6z"/>
<path d="M41950 21440 c0 -5 5 -10 11 -10 5 0 7 5 4 10 -3 6 -8 10 -11 10 -2
0 -4 -4 -4 -10z"/>
<path d="M42020 21365 c13 -14 27 -25 32 -25 5 0 -2 11 -16 25 -14 14 -28 25
-32 25 -4 0 3 -11 16 -25z"/>
<path d="M42071 21255 c19 -13 40 -29 47 -36 7 -6 16 -9 18 -6 3 3 -6 14 -20
25 -15 11 -26 25 -26 31 0 6 -12 11 -27 11 l-27 0 35 -25z"/>
<path d="M42119 21257 c14 -15 29 -27 33 -27 10 0 -5 16 -37 40 -15 10 -14 7
4 -13z"/>
<path d="M42170 21201 c0 -7 -5 -9 -12 -5 -7 4 -10 3 -5 -1 4 -5 18 -10 30
-12 12 -2 18 0 12 5 -5 4 -13 11 -17 16 -5 5 -8 4 -8 -3z"/>
<path d="M42210 21157 c0 -7 9 -18 20 -25 12 -7 20 -8 20 -2 0 5 -4 10 -10 10
-5 0 -10 7 -10 15 0 8 -4 15 -10 15 -5 0 -10 -6 -10 -13z"/>
<path d="M38310 20109 c-63 -5 -277 -20 -475 -34 -518 -37 -1009 -73 -1240
-90 -110 -8 -355 -26 -545 -40 -190 -14 -403 -30 -475 -35 -208 -16 -1017 -76
-4260 -315 -3734 -275 -3463 -254 -3505 -264 -34 -7 -33 -8 40 -26 108 -26
388 -31 660 -11 118 9 2080 153 4360 321 2280 168 4282 317 4450 331 570 47
881 85 1068 129 184 44 167 52 -78 34z"/>
<path d="M48540 18940 c0 -5 5 -10 10 -10 6 0 10 5 10 10 0 6 -4 10 -10 10 -5
0 -10 -4 -10 -10z"/>
<path d="M47835 17665 c-5 -2 -36 -6 -68 -10 l-58 -7 72 -54 c40 -30 76 -51
80 -47 4 5 21 34 39 66 l32 57 -44 -1 c-23 0 -47 -2 -53 -4z"/>
<path d="M47324 17447 c-38 -56 -70 -106 -71 -112 -2 -5 67 -62 152 -125 85
-63 155 -121 155 -129 0 -8 -17 -35 -37 -60 -21 -25 -41 -50 -45 -56 -150
-201 -368 -439 -667 -726 -115 -111 -130 -129 -107 -129 79 0 216 89 374 244
244 238 486 543 581 734 34 66 71 173 71 204 0 6 -289 229 -326 251 -7 4 -39
-34 -80 -96z m379 -178 c-10 -17 -24 -36 -32 -42 -8 -7 -2 7 14 31 32 49 45
57 18 11z"/>
<path d="M39080 16359 c-41 -23 -417 -226 -835 -451 -418 -226 -1041 -562
-1385 -748 -344 -186 -998 -539 -1455 -785 -456 -246 -940 -507 -1075 -580
-135 -73 -618 -334 -1075 -580 -456 -246 -1111 -599 -1455 -785 -344 -186
-998 -539 -1455 -785 -941 -507 -1226 -662 -1240 -677 -7 -7 11 -8 55 -3 159
17 288 62 525 185 83 42 2058 1107 4390 2365 2332 1258 4336 2339 4454 2403
425 227 592 286 816 286 117 -1 213 -18 337 -60 74 -25 105 -26 47 -1 -19 8
-153 69 -297 136 -145 66 -267 121 -270 121 -4 0 -41 -19 -82 -41z"/>
<path d="M39800 16100 c19 -11 40 -19 45 -19 6 0 -6 8 -25 19 -19 11 -39 19
-45 19 -5 0 6 -8 25 -19z"/>
<path d="M39944 16029 c49 -30 116 -80 151 -111 l62 -57 36 26 c21 14 37 29
37 32 0 5 -314 143 -358 158 -9 3 23 -19 72 -48z"/>
<path d="M44947 14770 c-354 -160 -639 -262 -959 -344 -480 -122 -895 -178
-1503 -202 l-170 -6 -109 -177 c-60 -97 -545 -869 -1076 -1716 -1611 -2566
-1480 -2355 -1460 -2355 28 0 189 181 276 310 50 74 518 815 1039 1645 521
831 992 1575 1046 1655 273 403 461 518 934 574 652 78 872 116 1215 212 546
152 877 313 955 464 9 17 14 30 13 30 -2 0 -92 -41 -201 -90z"/>
<path d="M22092 13325 c13 -13 649 -235 3428 -1193 3233 -1115 3239 -1117
3246 -1109 5 5 -11 11 -231 87 -77 27 -198 69 -270 93 -115 40 -356 123 -875
302 -320 110 -713 246 -940 325 -129 45 -253 87 -275 95 -22 7 -159 54 -305
105 -146 50 -341 118 -435 150 -152 52 -482 166 -905 312 -80 28 -208 72 -285
98 -77 27 -198 69 -270 93 -71 25 -263 91 -425 147 -393 136 -579 200 -735
254 -325 112 -719 246 -723 246 -3 0 -3 -2 0 -5z"/>
<path d="M34079 9899 c24 -11 80 -27 125 -36 74 -15 290 -17 2541 -20 2500 -4
2573 -3 2709 32 174 45 305 43 -2649 43 -2756 1 -2770 0 -2726 -19z"/>
</g>
</svg>
